<svg viewBox="0 0 421 380" fill="none" xmlns="http://www.w3.org/2000/svg">
<g filter="url(#filter0_d_1655_5738)">
<path d="M399.829 161.908C400.359 159.496 400.194 157.145 400.194 157.145C399.431 151.416 396.341 146.08 391.443 142.025C387.046 137.767 381.604 132.512 373.539 131.874C377.69 125.506 380.937 118.735 383.156 111.686C383.828 109.558 384.061 107.35 383.842 105.157C382.619 94.5631 370.207 87.9174 360.891 82.9285C353.446 78.9419 343.864 73.935 331.651 74.0549C331.942 71.0963 332.137 68.1302 332.162 65.1565C332.341 61.5922 331.692 58.0321 330.251 54.6747C324.929 42.0986 309.821 37.0721 300.153 33.8551C300.153 33.855 282.125 27.8569 266.711 31.1269H266.71C263.496 32.0501 260.394 33.2111 257.406 34.5546C256.613 31.2002 255.462 27.9082 253.883 24.7446C243.794 7.88527 169.206 7.88527 159.117 24.7446C157.537 27.9082 156.387 31.2 155.594 34.5544C152.606 33.211 149.504 32.0501 146.29 31.1269C130.876 27.8569 112.848 33.855 112.848 33.8551C103.179 37.0721 88.0715 42.0986 82.7498 54.6747C81.3083 58.0321 80.6594 61.5922 80.8388 65.1565C80.8638 68.1302 81.0589 71.0963 81.3493 74.0549C69.1369 73.9355 59.5555 78.9419 52.1107 82.9285C42.7945 87.9175 30.3842 94.5631 29.159 105.157C28.9407 107.35 29.1728 109.558 29.8456 111.686C32.0636 118.735 35.3101 125.506 39.4617 131.874C31.3973 132.511 25.956 137.767 21.5576 142.025C16.6597 146.08 13.5709 151.416 12.8061 157.145C12.806 157.145 12.6424 159.497 13.1732 161.908C18.7518 187.247 47.8138 211.612 47.814 211.612C47.8142 211.612 126.111 277.254 161.055 274.123C161.096 274.119 161.631 274.07 162.362 274.008C164.787 273.8 170.164 273.377 176.989 273.138C181.005 272.997 184.303 272.963 186.464 272.957L206.499 280.239L206.5 280.239V280.239L206.5 280.239L206.5 280.239L206.5 280.239L206.5 280.239L206.5 280.239L206.5 280.238L206.5 280.239V280.239L206.501 280.239L206.5 280.239L206.501 280.239V280.239L206.502 280.239L229.314 271.947C237.339 272.091 240.763 272.376 242.251 272.51C246.292 272.874 249.155 273.304 249.89 273.417L250.07 273.445C279.471 278.042 343.68 228.406 343.681 228.406C343.681 228.406 393.716 189.726 399.829 161.908L399.829 161.908ZM206.497 280.236L206.492 280.232L206.496 280.235L206.498 280.237L206.497 280.236V280.236ZM206.5 280.239L206.499 280.238V280.238L206.5 280.238L206.5 280.239H206.5ZM206.5 280.237L206.501 280.234L206.501 280.238L206.5 280.238V280.237Z" fill="#C4C4C4"/>
<path d="M73.833 73.0453C81.4271 102.369 93.4297 138.442 112.922 177.475C133.57 218.821 156.617 251.467 176.436 275.746L186.888 275.661C166.533 250.74 143.186 217.811 121.944 176.538C101.966 137.722 89.0843 101.694 80.5969 71.8999L73.833 73.0453H73.833Z" fill="#9D9D9D"/>
<path d="M146.381 28.7665C147.349 60.8836 150.446 97.3179 157.291 136.955C167.052 193.48 181.918 241.938 196.907 281.16L205.061 278.572C190.477 239.625 176.134 192.071 166.455 136.955C159.622 98.047 156.306 62.1657 155.054 30.3243C152.163 29.805 149.272 29.2858 146.381 28.7665H146.381Z" fill="#9D9D9D"/>
<path d="M266.877 28.7665C265.826 60.9988 262.696 97.4108 255.967 136.956C246.587 192.082 232.532 239.682 218.199 278.682L208.258 277.925C222.807 239.194 237.134 191.854 246.803 136.956C253.661 98.019 256.969 62.1319 258.204 30.3243C261.095 29.805 263.986 29.2858 266.877 28.7665V28.7665Z" fill="#9D9D9D"/>
<path d="M38.2948 130.221C51.435 152.192 68.9308 177.461 92.1879 203.889C118.28 233.539 144.951 257.065 168.336 275.175L160.045 277.191C137.565 259.849 111.853 237.29 86.624 208.837C62.6027 181.746 44.8446 155.881 31.749 133.703L38.2948 130.221V130.221Z" fill="#9D9D9D"/>
<path d="M374.8 130.015C361.66 151.986 344.164 177.255 320.907 203.683C294.815 233.333 268.144 256.859 244.758 274.969L253.05 276.985C275.529 259.643 301.241 237.084 326.471 208.631C350.492 181.54 368.25 155.676 381.346 133.497L374.8 130.015V130.015Z" fill="#9D9D9D"/>
<path d="M339.426 73.0453C331.926 102.256 319.964 138.378 300.336 177.475C279.456 219.069 256.082 251.716 236.126 275.799L226.325 275.877C246.706 250.876 270.062 217.874 291.315 176.538C311.264 137.738 324.153 101.721 332.662 71.8999L339.426 73.0453H339.426Z" fill="#9D9D9D"/>
<path d="M206.492 280.232L206.497 280.237L206.498 280.238L206.497 280.235L206.492 280.232Z" fill="#757575"/>
<path d="M411.949 156.392L411.926 156.066L411.883 155.741C410.778 147.452 406.409 139.713 399.557 133.899C397.075 131.495 393.991 128.557 390.087 126.056C391.799 122.404 393.252 118.68 394.44 114.909C395.553 111.382 395.935 107.746 395.553 103.935C393.669 87.6313 377.428 78.9323 366.675 73.1744C361.132 70.206 353.541 66.1414 343.974 64.1132C343.994 59.4391 343.05 54.8539 341.181 50.4982C333.866 33.2068 314.466 26.7546 304.044 23.2887L304.024 23.3447C301.418 22.3197 298.464 21.6869 295.651 21.0828C289.075 19.671 282.724 18.9549 276.772 18.9549C272.463 18.9549 268.372 19.3417 264.607 20.1029L264.342 19.5713L264.127 19.2104C254.24 2.68845 220.533 0.904907 206.501 0.904907C192.466 0.904907 158.759 2.68845 148.872 19.2104L148.657 19.5713L148.392 20.1029C144.627 19.3417 140.536 18.9549 136.227 18.9549C130.276 18.9549 123.924 19.671 117.348 21.0828C114.532 21.6869 111.581 22.3197 108.975 23.3447L108.955 23.2887C98.533 26.7546 79.1337 33.2081 71.8388 50.4476C69.9489 54.8498 69.0054 59.4391 69.0284 64.1132C59.461 66.1414 51.8699 70.2073 46.3239 73.1771C35.5743 78.9323 19.3333 87.6313 17.4291 104.101C17.0666 107.75 17.4463 111.387 18.5567 114.894C19.7447 118.673 21.2002 122.403 22.9146 126.057C19.0112 128.558 15.9275 131.495 13.4422 133.898C6.59609 139.709 2.22662 147.446 1.11916 155.736L1.07314 156.07L1.05012 156.406C1.0041 157.054 0.820008 160.473 1.63982 164.202C7.94807 192.852 38.7126 218.912 40.0186 220.008C48.0067 226.704 119.187 285.426 158.543 285.426C159.783 285.426 160.988 285.374 161.88 285.291L163.419 285.158C166.488 284.895 171.413 284.538 177.422 284.326C180.106 284.233 182.45 284.188 184.329 284.168L206.501 292.226L231.366 283.189C237.605 283.338 240.217 283.573 241.137 283.655C244.463 283.956 246.891 284.3 248.01 284.471L248.156 284.493C250.063 284.791 252.086 284.943 254.168 284.943C288.232 284.943 344.779 241.989 351.116 237.092C356.57 232.876 404.588 195.014 411.36 164.206C412.182 160.472 411.995 157.042 411.949 156.392L411.949 156.392ZM399.829 161.908C393.716 189.726 343.68 228.406 343.68 228.406C343.68 228.406 279.471 278.042 250.07 273.446L249.89 273.418C249.155 273.304 246.292 272.874 242.251 272.51C240.763 272.376 237.339 272.091 229.313 271.947L206.502 280.239L206.501 280.239V280.239L206.5 280.24L206.501 280.239L206.5 280.239L206.5 280.239L206.499 280.239V280.239L206.499 280.239L186.464 272.957C184.302 272.963 181.005 272.997 176.988 273.138C170.164 273.377 164.787 273.8 162.362 274.008C161.631 274.071 161.096 274.119 161.055 274.123C126.111 277.254 47.814 211.612 47.8136 211.612C47.8135 211.612 18.7514 187.247 13.1729 161.908C12.642 159.497 12.8058 157.146 12.8058 157.145C13.5706 151.416 16.6595 146.08 21.5573 142.026C25.9557 137.767 31.397 132.512 39.4614 131.874C35.3098 125.507 32.0633 118.735 29.8453 111.686C29.1726 109.559 28.9405 107.35 29.1587 105.157C30.3839 94.5633 42.7942 87.9178 52.1104 82.9288C59.5553 78.9422 69.1367 73.9356 81.349 74.0552C81.0587 71.0965 80.8636 68.1304 80.8386 65.1566C80.6592 61.5925 81.308 58.0324 82.7495 54.6749C88.0713 42.0988 103.178 37.0722 112.847 33.8554C112.848 33.8552 130.875 27.8571 146.29 31.1271C149.504 32.0503 152.606 33.2111 155.594 34.5546C156.387 31.2002 157.537 27.9084 159.117 24.7448C169.205 7.8854 243.794 7.8854 253.882 24.7448C255.462 27.9084 256.612 31.2004 257.405 34.5548C260.393 33.2113 263.496 32.0503 266.71 31.1271H266.71C282.124 27.8571 300.152 33.8552 300.152 33.8554C309.821 37.0722 324.929 42.0988 330.25 54.6749C331.692 58.0324 332.341 61.5925 332.162 65.1566C332.137 68.1304 331.942 71.0965 331.651 74.0552C343.864 73.9353 353.446 78.9422 360.891 82.9288C370.207 87.9178 382.619 94.5633 383.842 105.157C384.061 107.35 383.827 109.559 383.155 111.686C380.937 118.735 377.69 125.507 373.539 131.875C381.604 132.512 387.046 137.767 391.443 142.026C396.341 146.08 399.431 151.416 400.194 157.145C400.194 157.146 400.359 159.496 399.829 161.908H399.829Z" fill="#B3B3B3"/>
<path d="M206.5 280.238L206.501 280.234L206.5 280.237L206.5 280.238Z" fill="#757575"/>
<path d="M411.972 302.017C411.428 304.285 410.428 307.498 408.477 311C407.78 312.251 405.051 316.954 398.372 322.488C390.448 329.053 382.225 332.161 377.373 333.951C369.56 336.833 362.754 338.063 358.882 338.745C354.866 339.453 351.419 339.855 348.847 340.094C350.334 328.082 351.82 316.069 353.307 304.057C372.862 303.377 392.417 302.697 411.972 302.017V302.017Z" fill="#A3A3A3"/>
<path d="M362.462 314.546C362.924 318.108 363.138 323.991 360.705 330.493C359.954 332.498 358.448 336.408 354.893 340.223C351.629 343.725 348.06 345.624 344.219 347.287C332.904 352.187 322.394 353.668 319.039 354.105C315.194 354.605 303.201 356.014 286.393 354.869C278.774 354.35 268.727 353.209 257.063 350.583L252.51 318.217L362.462 314.546L362.462 314.546Z" fill="#C2C2C2"/>
<path d="M1.0127 301.66C1.46035 304.109 2.39806 307.557 4.53556 311.375C7.72319 317.069 11.903 320.595 14.6406 322.863C22.565 329.428 30.7881 332.536 35.64 334.326C43.453 337.208 50.259 338.438 54.1305 339.121C58.1464 339.829 61.5935 340.23 64.1656 340.469C62.679 328.457 61.1923 316.445 59.7057 304.432C40.1414 303.508 20.577 302.584 1.0127 301.66V301.66Z" fill="#A3A3A3"/>
<path d="M49.9945 315.513C49.9106 318.113 50.0647 321.959 51.3131 326.396C51.9444 328.64 53.4497 333.793 57.5403 338.686C58.6648 340.032 62.0461 343.823 70.929 347.905C74.8027 349.684 81.5592 352.363 93.6206 354.18C96.4025 354.598 108.551 356.303 126.049 355.228C133.409 354.776 143.259 353.736 154.764 351.233C153.276 340.153 151.788 329.073 150.3 317.993C116.865 317.166 83.4297 316.34 49.9944 315.513H49.9945Z" fill="#C2C2C2"/>
<path d="M142.907 322.588C142.204 325.696 140.849 333.726 145.063 341.668C147.958 347.124 152.105 349.945 156.71 353.077C158.55 354.329 167.448 360.212 179.751 362.142C181.997 362.494 186.47 362.896 195.415 363.7C197.272 363.867 199.124 364.027 201.557 364.145C205.74 364.347 209.185 364.308 212.123 364.219C222.831 363.895 228.185 363.733 234.395 362.603C242.211 361.179 248.565 360.022 255.37 355.501C258.706 353.284 264.95 349.135 268.262 340.969C271.99 331.776 269.609 323.392 268.715 320.69C226.779 321.323 184.843 321.956 142.907 322.588H142.907Z" fill="#B3B3B3"/>
<path d="M134.505 269.294C117.442 270.821 101.139 272.281 80.0548 276.186C53.1295 281.174 31.0359 287.811 14.6409 293.568C12.4184 294.175 4.6119 296.426 1.75623 299.812C1.23603 300.428 0.932017 301.021 1.01297 301.66C1.30758 303.981 6.46377 305.076 6.89119 305.163C9.66201 305.929 13.6463 306.901 18.5434 307.653C23.1042 308.354 26.5229 308.559 30.4988 308.802C36.4501 309.166 43.8235 309.586 52.3654 310.001C51.7419 310.642 50.8782 311.7 50.3832 313.148C49.4431 315.897 50.2722 318.812 52.1176 320.889C53.7657 322.744 55.8108 323.463 59.0533 324.603C61.3635 325.415 64.9225 326.417 69.5862 326.783C80.2208 327.519 89.3472 327.63 96.4703 327.532C107.16 327.386 115.411 326.742 122.363 326.184C130.765 325.509 137.814 324.725 142.991 324.086C143.626 324.516 144.577 325.138 145.779 325.834C151.059 328.895 155.871 330.329 160.026 331.478C171.047 334.526 176.557 336.05 184.308 337.172C186.54 337.495 197.331 339.005 211.874 338.571C219.34 338.348 228.998 338.008 240.926 335.124C250.199 332.883 256.947 330.045 259.696 328.831C263.434 327.18 266.477 325.571 268.739 324.286C270.428 324.499 272.741 324.782 275.492 325.085C286.287 326.275 294.618 326.775 297.42 326.933C303.072 327.251 300.805 326.998 326.163 327.483C326.163 327.483 334.999 327.651 345.675 326.534C347.127 326.382 351.311 325.912 355.834 323.886C360.437 321.825 361.588 319.856 361.843 319.391C363.048 317.193 362.597 315.122 362.462 314.546C361.929 312.271 360.395 310.812 359.737 310.251C360.964 310.284 362.715 310.317 364.816 310.301C366.871 310.285 368.53 310.228 370.009 310.144C375.178 309.852 380.06 309.374 381.665 309.202C386.083 308.728 391.978 308.054 399.087 307.129C400.446 306.876 406.848 305.651 410.098 303.907C411.263 303.283 411.842 302.688 411.972 302.017C412.077 301.476 411.888 300.892 411.337 300.211C408.857 297.144 404.121 295.89 404.121 295.89C398.858 294.019 392.06 291.711 384.035 289.26C378.311 287.513 367.474 284.225 353.914 281.131C338.589 277.635 327.136 276.063 311.652 273.939C298.589 272.146 286.823 270.861 276.421 269.893C261.025 268.46 237.08 266.289 205.494 266.147C196.54 266.107 169.602 266.151 134.505 269.294L134.505 269.294Z" fill="#DDDDDD"/>
<path d="M82.2847 282.98C79.4807 283.406 76.293 283.919 72.6287 284.596C71.3945 284.824 67.3354 285.585 62.2145 286.726C57.1548 287.853 50.0904 289.569 41.4435 292.1C38.6911 292.631 36.7616 293.66 35.5825 294.433C34.308 295.268 32.6325 296.366 32.7106 297.73C32.7364 298.179 32.9664 298.903 34.227 299.766C37.5772 302.061 43.1286 301.74 48.9389 301.802C53.3277 301.849 57.8224 301.839 62.4184 301.763C67.4746 301.681 72.4066 301.523 77.2081 301.303C76.5614 301.753 75.6773 302.428 74.7306 303.357C73.7935 304.277 73.08 304.977 72.4858 306.065C72.1085 306.756 71.0636 308.67 71.5883 310.676C71.9067 311.893 72.7276 312.857 73.962 313.77C76.2435 315.459 80.3842 317.307 95.2144 317.347C96.448 317.351 97.3497 317.345 97.9812 317.333C101.159 317.273 104.498 317.043 114.831 316.461C123.246 315.988 128.946 315.605 135.495 314.992C137.668 314.788 140.128 314.477 143.321 313.952C146.59 313.414 149.247 312.878 150.949 312.518C152.31 313.2 154.281 314.141 156.71 315.13C164.033 318.112 169.966 319.274 178.246 320.763C190.593 322.983 196.767 324.093 198.692 324.245C211.108 325.225 220.766 323.774 227.856 322.709C238.287 321.142 245.378 319.078 247.306 318.492C252.27 316.984 256.406 315.381 259.531 314.053C260.258 314.097 261.118 314.151 262.085 314.212C262.085 314.212 263.892 314.402 265.704 314.447C275.935 314.701 300.326 317.204 300.326 317.204C300.326 317.204 329.993 320.248 338.754 314.617C341.029 313.155 341.711 311.187 341.712 311.186C342.474 309 341.631 306.967 341.193 305.912C340.029 303.107 337.861 301.572 336.834 300.944C339.766 301.314 343.737 301.71 348.458 301.866C355.867 302.111 361.211 301.636 362.573 301.507C367.526 301.04 379.491 299.911 379.724 297.193C379.845 295.775 376.729 294.459 372.563 292.699C366.605 290.183 361.299 288.925 357.414 288.249C342.254 284.957 322.612 281.22 299.464 278.185C295.286 277.637 281.346 275.844 262.793 274.339C247.201 273.074 224.847 271.318 195.768 271.742C168.145 272.144 147.207 274.328 133.08 275.837C120.225 277.21 107.578 279.133 82.2847 282.98V282.98Z" fill="#B3B3B3"/>
<path d="M264.422 274.586C263.624 274.476 262.808 274.379 262.001 274.275C246.445 273.016 224.38 271.324 195.768 271.741C178.895 271.987 164.548 272.9 152.693 273.915C148.838 274.376 144.837 274.916 140.957 275.544C107.803 280.917 70.9505 296.865 60.0493 301.77C60.8508 301.761 61.6108 301.777 62.4187 301.763C67.4749 301.681 72.4068 301.523 77.2084 301.302C76.5617 301.753 75.6774 302.427 74.7309 303.357C73.7938 304.277 73.0801 304.977 72.486 306.065C72.1088 306.756 71.0638 308.669 71.5885 310.676C71.9069 311.893 72.7277 312.857 73.9622 313.77C76.2437 315.459 80.3843 317.307 95.2147 317.347C96.4483 317.35 97.3499 317.345 97.9815 317.333C101.159 317.273 104.498 317.043 114.831 316.461C123.247 315.987 128.946 315.605 135.495 314.992C137.668 314.788 140.128 314.477 143.321 313.952C146.59 313.414 149.247 312.878 150.95 312.518C152.31 313.2 154.281 314.141 156.71 315.13C164.034 318.112 169.966 319.274 178.246 320.763C190.593 322.983 196.767 324.093 198.692 324.245C211.108 325.225 220.766 323.774 227.857 322.709C238.288 321.142 245.378 319.078 247.306 318.492C252.271 316.984 256.406 315.381 259.532 314.053C260.258 314.097 261.118 314.151 262.085 314.212C262.085 314.212 263.892 314.401 265.704 314.446C275.935 314.701 300.326 317.204 300.326 317.204C300.327 317.204 329.993 320.248 338.754 314.617C341.029 313.155 341.712 311.186 341.712 311.186C342.475 309 341.631 306.967 341.193 305.911C340.029 303.107 337.861 301.572 336.834 300.944C339.766 301.314 343.737 301.71 348.458 301.866C348.992 301.883 349.491 301.89 350.003 301.901C312.378 283.365 282.246 277.044 264.422 274.586V274.586Z" fill="#949291"/>
</g>
<g filter="url(#filter1_d_1655_5738)">
<path d="M122.859 214.2C176.681 214.174 230.502 214.147 284.323 214.121C284.727 206.422 284.59 200.141 284.4 195.92C283.65 179.25 280.796 166.086 278.098 153.893C276.712 147.632 275.415 142.57 274.563 139.363C263.57 137.778 252.058 136.494 240.057 135.613C200.043 132.678 163.828 134.909 132.62 139.363C131.513 143.534 130.013 149.489 128.47 156.705C125.976 168.363 123.68 179.3 122.859 193.264C122.556 198.425 122.361 205.587 122.859 214.2Z" fill="#5E5E5E"/>
<path d="M125.477 214.2H289.324C286.389 237.483 283.454 260.766 280.519 284.049C185.621 284.081 134.615 284.099 134.614 284.099C134.614 284.094 131.04 256.755 125.477 214.2Z" fill="#5E5E5E"/>
<path d="M133.179 139.286C130.514 157.424 127.85 175.562 125.186 193.699C178.513 193.453 231.84 193.207 285.167 192.961C284.984 189.298 284.801 185.634 284.619 181.971C268.458 181.623 252.297 181.276 236.137 180.928C235.503 180.223 234.516 179.302 233.115 178.61C231.563 177.844 230.138 177.617 229.236 177.613C226.093 177.598 210.096 177.412 188.147 177.28C187.049 177.474 185.563 177.859 183.94 178.665C182.568 179.348 181.503 180.131 180.732 180.791L149.23 181.288C151.578 166.376 153.926 151.464 156.274 136.553C148.305 137.312 140.601 138.236 133.179 139.286Z" fill="#474747"/>
<path d="M128.916 240.506C131.813 254.708 134.71 268.909 137.607 283.11C155.638 282.574 173.668 282.038 191.699 281.503C187.193 280.405 183.461 279.83 180.881 279.508C176.856 279.006 174.499 278.976 166.074 278.455C162.175 278.214 158.999 277.993 156.949 277.846L148.871 214.199H125.477C126.731 223.791 127.882 232.6 128.916 240.506L128.916 240.506Z" fill="#474747"/>
<path d="M287.644 214.2H125.477C126.028 219.88 126.559 225.351 127.069 230.613C144.338 230.472 161.608 230.33 178.877 230.189C179.336 230.751 179.984 231.442 180.844 232.074C180.844 232.074 182.33 233.452 184.268 233.667C187.102 233.98 204.132 234.048 227.469 233.717C228.567 233.406 230.346 232.724 232.168 231.128C233.641 229.837 234.606 228.418 235.191 227.401C253.04 227.662 270.889 227.924 288.737 228.185C288.373 223.523 288.009 218.861 287.644 214.2H287.644Z" fill="#474747"/>
<path d="M132.98 149.671C154.572 147.543 178.283 146.169 203.828 146.122C230.422 146.073 255.048 147.469 277.384 149.671L278.1 152.774C255.264 150.765 230.383 149.523 203.719 149.558C177.889 149.591 153.744 150.819 131.523 152.774C132.009 151.739 132.495 150.705 132.98 149.671Z" fill="#474747"/>
<path d="M132.98 173.767C154.572 171.639 178.283 170.265 203.828 170.218C230.422 170.169 255.048 171.565 277.384 173.767L278.1 176.869C255.264 174.861 230.383 173.619 203.719 173.653C177.889 173.687 153.744 174.915 131.523 176.869C132.009 175.835 132.495 174.801 132.98 173.767Z" fill="#474747"/>
<path d="M132.086 260.848C157.278 260.615 182.663 260.493 208.24 260.487C235.223 260.48 261.993 260.603 288.548 260.848L289.323 263.951C262.273 264.057 235.221 264.109 208.167 264.107C182.279 264.105 156.392 264.053 130.507 263.951C131.034 262.916 131.56 261.882 132.086 260.848Z" fill="#474747"/>
<path d="M129.069 236.317C154.26 236.084 179.646 235.962 205.223 235.956C232.206 235.949 258.976 236.072 285.53 236.317L286.306 239.42C259.256 239.526 232.204 239.578 205.15 239.576C179.261 239.574 153.375 239.522 127.49 239.42C128.016 238.385 128.543 237.351 129.069 236.317Z" fill="#474747"/>
<path d="M103.123 216.448L118.704 289.185L141.335 288.307C137.213 264.438 133.091 240.568 128.969 216.699C120.353 216.615 111.738 216.532 103.123 216.448H103.123Z" fill="#767676"/>
<path d="M310.572 216.448L294.99 289.185L272.359 288.307C276.481 264.438 280.603 240.568 284.725 216.699C293.341 216.615 301.956 216.532 310.572 216.448Z" fill="#767676"/>
<path d="M310.572 216.448L297.906 216.571C293.368 239.286 288.831 262.002 284.293 284.717L295.923 284.83C300.806 262.036 305.689 239.242 310.572 216.448Z" fill="#616161"/>
<path d="M98.918 196.007L116.355 141.078C116.732 140.405 117.305 139.484 118.127 138.486C118.791 137.681 119.496 136.825 120.601 136.062C121.301 135.578 122.614 134.819 124.558 134.515C129.257 134.571 133.957 134.627 138.656 134.682C138.878 134.744 139.219 134.856 139.604 135.059C140.737 135.655 141.362 136.57 141.748 137.149C141.934 137.429 142.21 137.847 142.448 138.445C142.939 139.672 142.944 140.83 142.86 141.622C142.739 142.346 142.615 143.07 142.489 143.795C139.471 161.197 135.413 177.945 130.494 194.042L98.918 196.007H98.918Z" fill="#8B8B8B"/>
<path d="M311.415 195.777L293.978 140.848C293.602 140.175 293.028 139.254 292.206 138.257C291.542 137.451 290.837 136.595 289.733 135.832C289.032 135.348 287.72 134.589 285.775 134.285C281.076 134.341 276.377 134.397 271.677 134.452C271.455 134.514 271.115 134.626 270.729 134.829C269.596 135.425 268.972 136.34 268.586 136.919C268.399 137.199 268.124 137.617 267.885 138.215C267.395 139.442 267.389 140.6 267.473 141.392C267.594 142.116 267.718 142.84 267.844 143.565C270.862 160.968 274.921 177.715 279.839 193.812L311.415 195.777L311.415 195.777Z" fill="#8B8B8B"/>
<path d="M279.839 193.812C290.365 194.467 300.89 195.122 311.415 195.777C310.012 191.354 308.608 186.932 307.204 182.51C296.923 182.266 286.641 182.022 276.36 181.779C277.466 185.829 278.626 189.841 279.839 193.812V193.812Z" fill="#767676"/>
<path d="M103.504 181.56C101.996 186.311 100.488 191.061 98.98 195.812C99.6694 195.833 100.359 195.853 101.048 195.874C110.864 195.263 120.679 194.653 130.494 194.042C131.773 189.857 132.99 185.625 134.15 181.352L103.504 181.56H103.504Z" fill="#767676"/>
<path d="M106.193 230.782C114.574 230.656 122.955 230.53 131.336 230.404C130.548 225.841 129.76 221.278 128.972 216.715C120.356 216.63 111.741 216.545 103.125 216.461C104.148 221.234 105.171 226.008 106.193 230.782H106.193Z" fill="#616161"/>
<path d="M282.726 228.278C291.128 228.443 299.53 228.608 307.931 228.774C308.811 224.665 309.692 220.557 310.572 216.448C301.954 216.547 293.336 216.646 284.718 216.744C284.054 220.589 283.39 224.433 282.726 228.278Z" fill="#616161"/>
<path d="M322.574 193.34C322.119 192.362 321.448 191.908 321.072 191.661C320.329 191.389 319.562 191.139 318.769 190.914C312.626 189.176 102.374 189.176 96.2308 190.914C95.4384 191.139 94.6706 191.389 93.9277 191.661C93.5521 191.908 92.8811 192.362 92.4256 193.34C92.0983 194.042 92.0203 194.718 92 195.112C92.4757 199.714 92.9513 204.316 93.427 208.919C93.5007 210.069 93.7777 212.228 94.9791 214.236C95.2984 214.769 95.8533 215.677 96.8567 216.412C96.8568 216.412 97.7975 217.103 98.9596 217.345C101.376 217.849 313.624 217.849 316.04 217.345C317.202 217.103 318.143 216.412 318.143 216.412C319.147 215.677 319.702 214.769 320.021 214.236C321.222 212.228 321.499 210.069 321.573 208.919C322.049 204.316 322.524 199.714 323 195.112C322.98 194.718 322.902 194.042 322.574 193.34H322.574Z" fill="#8B8B8B"/>
<path d="M93.1987 206.708C93.2749 207.445 93.351 208.182 93.4272 208.918C93.5009 210.069 93.7779 212.228 94.9793 214.236C95.2986 214.769 95.8535 215.677 96.8569 216.412C96.8569 216.412 97.7978 217.103 98.9598 217.345C101.376 217.849 313.624 217.849 316.041 217.345C317.203 217.103 318.143 216.412 318.144 216.412C319.147 215.677 319.702 214.769 320.021 214.236C321.222 212.228 321.5 210.069 321.573 208.918L321.772 206.991C245.581 206.897 169.39 206.803 93.1987 206.708H93.1987Z" fill="#767676"/>
<path d="M300.702 282.601C300.331 281.944 299.784 281.638 299.478 281.472C298.872 281.289 298.246 281.121 297.6 280.97C292.592 279.802 121.205 279.802 116.197 280.97C115.551 281.121 114.925 281.289 114.319 281.472C114.013 281.638 113.466 281.944 113.095 282.601C112.828 283.073 112.765 283.527 112.748 283.792C113.136 286.886 113.524 289.979 113.911 293.072C113.971 293.846 114.197 295.297 115.176 296.646C115.437 297.005 115.889 297.615 116.707 298.109C116.707 298.109 117.474 298.574 118.421 298.737C120.391 299.075 293.406 299.075 295.376 298.737C296.323 298.574 297.09 298.109 297.09 298.109C297.908 297.615 298.36 297.005 298.621 296.646C299.6 295.297 299.826 293.846 299.886 293.072C300.273 289.979 300.661 286.886 301.049 283.792C301.032 283.527 300.969 283.073 300.702 282.601H300.702Z" fill="#8B8B8B"/>
<path d="M113.755 291.828L113.911 293.072C113.971 293.846 114.197 295.297 115.177 296.646C115.437 297.005 115.889 297.615 116.707 298.109C116.707 298.109 117.474 298.574 118.421 298.736C120.391 299.075 293.406 299.075 295.376 298.736C296.323 298.574 297.09 298.109 297.09 298.109C297.908 297.615 298.36 297.005 298.621 296.646C299.6 295.297 299.826 293.846 299.886 293.072L299.909 292.889C237.858 292.535 175.807 292.182 113.755 291.828H113.755Z" fill="#767676"/>
<path d="M281.119 298.88C289.719 298.842 295.04 298.794 295.376 298.736C296.323 298.573 297.09 298.109 297.09 298.109C297.908 297.615 298.36 297.005 298.621 296.646C299.6 295.297 299.826 293.846 299.886 293.072C300.274 289.979 300.661 286.885 301.049 283.792C301.032 283.527 300.969 283.072 300.702 282.6C300.331 281.943 299.784 281.638 299.478 281.472C298.872 281.289 298.246 281.121 297.6 280.97C296.843 280.793 292.276 280.643 285.061 280.52C283.747 286.64 282.433 292.76 281.119 298.88H281.119Z" fill="#767676"/>
<path d="M222.346 183.65H191.45C185.881 183.65 181.366 188.228 181.366 193.876V213.458C181.366 219.106 185.881 223.684 191.45 223.684H222.346C227.916 223.684 232.431 219.106 232.431 213.458V193.876C232.431 188.228 227.916 183.65 222.346 183.65Z" fill="#B0B0B0"/>
<path d="M213.386 198.258C213.388 195.185 210.847 192.289 207.5 192.289C204.249 192.289 201.613 194.961 201.613 198.258C201.613 200.765 203.138 202.907 205.297 203.791C204.286 207.516 203.275 211.24 202.264 214.964C205.754 214.991 209.245 215.018 212.736 215.045C211.663 211.318 210.59 207.591 209.517 203.863C211.858 202.869 213.385 200.64 213.386 198.258V198.258Z" fill="#232323"/>
</g>
<defs>
<filter id="filter0_d_1655_5738" x="0" y="0.904907" width="421" height="378.387" filterUnits="userSpaceOnUse" color-interpolation-filters="sRGB">
<feFlood flood-opacity="0" result="BackgroundImageFix"/>
<feColorMatrix in="SourceAlpha" type="matrix" values="0 0 0 0 0 0 0 0 0 0 0 0 0 0 0 0 0 0 127 0" result="hardAlpha"/>
<feOffset dx="4" dy="10"/>
<feGaussianBlur stdDeviation="2.5"/>
<feComposite in2="hardAlpha" operator="out"/>
<feColorMatrix type="matrix" values="0 0 0 0 0.591667 0 0 0 0 0.13066 0 0 0 0 0.351943 0 0 0 0.2 0"/>
<feBlend mode="normal" in2="BackgroundImageFix" result="effect1_dropShadow_1655_5738"/>
<feBlend mode="normal" in="SourceGraphic" in2="effect1_dropShadow_1655_5738" result="shape"/>
</filter>
<filter id="filter1_d_1655_5738" x="88" y="133.285" width="243" height="176.705" filterUnits="userSpaceOnUse" color-interpolation-filters="sRGB">
<feFlood flood-opacity="0" result="BackgroundImageFix"/>
<feColorMatrix in="SourceAlpha" type="matrix" values="0 0 0 0 0 0 0 0 0 0 0 0 0 0 0 0 0 0 127 0" result="hardAlpha"/>
<feOffset dx="2" dy="5"/>
<feGaussianBlur stdDeviation="3"/>
<feComposite in2="hardAlpha" operator="out"/>
<feColorMatrix type="matrix" values="0 0 0 0 0.491667 0 0 0 0 0.340397 0 0 0 0 0.200764 0 0 0 0.25 0"/>
<feBlend mode="normal" in2="BackgroundImageFix" result="effect1_dropShadow_1655_5738"/>
<feBlend mode="normal" in="SourceGraphic" in2="effect1_dropShadow_1655_5738" result="shape"/>
</filter>
</defs>
</svg>
