<svg viewBox="0 0 421 396" fill="none" xmlns="http://www.w3.org/2000/svg">
<g filter="url(#filter0_d_1655_5738)">
<path d="M399.829 168.771C400.359 166.253 400.194 163.8 400.194 163.799C399.431 157.819 396.341 152.249 391.443 148.017C387.046 143.572 381.604 138.086 373.539 137.421C377.69 130.773 380.937 123.705 383.156 116.347C383.828 114.126 384.061 111.821 383.842 109.532C382.619 98.4733 370.207 91.5362 360.891 86.3286C353.446 82.1671 343.864 76.9406 331.651 77.0658C331.942 73.9774 332.137 70.8813 332.162 67.7772C332.341 64.0566 331.692 60.3404 330.251 56.8357C324.929 43.7082 309.821 38.4612 300.153 35.1032C300.153 35.103 282.125 28.8419 266.711 32.2553H266.71C263.496 33.219 260.394 34.4309 257.406 35.8333C256.613 32.3318 255.462 28.8955 253.883 25.5931C243.794 7.99451 169.206 7.99451 159.117 25.5931C157.537 28.8955 156.387 32.3316 155.594 35.8331C152.606 34.4308 149.504 33.219 146.29 32.2553C130.876 28.8419 112.848 35.1031 112.848 35.1032C103.179 38.4612 88.0715 43.7082 82.7498 56.8357C81.3083 60.3404 80.6594 64.0566 80.8388 67.7772C80.8638 70.8813 81.0589 73.9774 81.3493 77.0658C69.1369 76.9411 59.5555 82.1671 52.1107 86.3286C42.7945 91.5362 30.3842 98.4733 29.159 109.532C28.9407 111.821 29.1728 114.126 29.8456 116.347C32.0636 123.705 35.3101 130.773 39.4617 137.421C31.3973 138.086 25.956 143.572 21.5576 148.017C16.6597 152.249 13.5709 157.819 12.8061 163.799C12.806 163.8 12.6424 166.255 13.1732 168.771C18.7518 195.222 47.8138 220.655 47.814 220.655C47.8142 220.655 126.111 289.175 161.055 285.907C161.096 285.903 161.631 285.852 162.362 285.787C164.787 285.57 170.164 285.128 176.989 284.879C181.005 284.732 184.303 284.697 186.464 284.69L206.499 292.291L206.5 292.291V292.291L206.5 292.291L206.5 292.291L206.5 292.291L206.5 292.291L206.5 292.291L206.5 292.291L206.5 292.291V292.291L206.501 292.291L206.5 292.292L206.501 292.291V292.291L206.502 292.291L229.314 283.636C237.339 283.786 240.763 284.084 242.251 284.224C246.292 284.604 249.155 285.052 249.89 285.171L250.07 285.2C279.471 289.998 343.68 238.185 343.681 238.185C343.681 238.185 393.716 197.809 399.829 168.771L399.829 168.771ZM206.497 292.289L206.492 292.284L206.496 292.287L206.498 292.289L206.497 292.289ZM206.5 292.291L206.499 292.291V292.29L206.5 292.29L206.5 292.291H206.5ZM206.5 292.29L206.501 292.286L206.501 292.29L206.5 292.29V292.29Z" fill="#ECA694"/>
<path d="M73.833 76.0119C81.4271 106.622 93.4297 144.276 112.922 185.021C133.57 228.18 156.617 262.257 176.436 287.602L186.888 287.513C166.533 261.499 143.186 227.126 121.944 184.043C101.966 143.524 89.0843 105.917 80.5969 74.8163L73.833 76.0119H73.833Z" fill="#E7958A"/>
<path d="M146.381 29.7914C147.349 63.3169 150.446 101.349 157.291 142.725C167.052 201.727 181.918 252.311 196.907 293.253L205.061 290.552C190.477 249.897 176.134 200.257 166.455 142.725C159.622 102.11 156.306 64.6552 155.054 31.4175C152.163 30.8754 149.272 30.3335 146.381 29.7914H146.381Z" fill="#E7958A"/>
<path d="M266.877 29.7914C265.826 63.4371 262.696 101.446 255.967 142.725C246.587 200.268 232.532 249.956 218.199 290.666L208.258 289.876C222.807 249.447 237.134 200.031 246.803 142.725C253.661 102.081 256.969 64.62 258.204 31.4175C261.095 30.8754 263.986 30.3335 266.877 29.7914Z" fill="#E7958A"/>
<path d="M38.2948 135.695C51.435 158.629 68.9308 185.006 92.1879 212.593C118.28 243.543 144.951 268.101 168.336 287.005L160.045 289.11C137.565 271.008 111.853 247.459 86.624 217.758C62.6027 189.479 44.8446 162.481 31.749 139.329L38.2948 135.695V135.695Z" fill="#E7958A"/>
<path d="M374.8 135.48C361.66 158.414 344.164 184.791 320.907 212.379C294.815 243.329 268.144 267.886 244.758 286.791L253.05 288.895C275.529 270.793 301.241 247.244 326.471 217.543C350.492 189.264 368.25 162.266 381.346 139.114L374.8 135.48V135.48Z" fill="#E7958A"/>
<path d="M339.426 76.0119C331.926 106.504 319.964 144.209 300.336 185.021C279.456 228.439 256.082 262.518 236.126 287.657L226.325 287.738C246.706 261.64 270.062 227.192 291.315 184.043C311.264 143.542 324.153 105.945 332.662 74.8163L339.426 76.0119H339.426Z" fill="#E7958A"/>
<path d="M206.492 292.284L206.497 292.289L206.498 292.29L206.497 292.287L206.492 292.284Z" fill="#DDA297"/>
<path d="M411.949 163.014L411.926 162.673L411.883 162.334C410.778 153.681 406.409 145.603 399.557 139.535C397.075 137.025 393.991 133.958 390.087 131.347C391.799 127.535 393.252 123.648 394.44 119.712C395.553 116.029 395.935 112.235 395.553 108.256C393.669 91.2375 377.428 82.157 366.675 76.1467C361.132 73.048 353.541 68.8052 343.974 66.6881C343.994 61.8091 343.05 57.0227 341.181 52.4761C333.866 34.4264 314.466 27.6912 304.044 24.0733L304.024 24.1318C301.418 23.0618 298.464 22.4013 295.651 21.7708C289.075 20.2971 282.724 19.5495 276.772 19.5495C272.463 19.5495 268.372 19.9532 264.607 20.7479L264.342 20.1929L264.127 19.8163C254.24 2.56976 220.533 0.708008 206.501 0.708008C192.466 0.708008 158.759 2.56976 148.872 19.8163L148.657 20.1929L148.392 20.7479C144.627 19.9532 140.536 19.5495 136.227 19.5495C130.276 19.5495 123.924 20.2971 117.348 21.7708C114.532 22.4013 111.581 23.0618 108.975 24.1318L108.955 24.0733C98.533 27.6913 79.1337 34.4278 71.8388 52.4233C69.9489 57.0185 69.0054 61.8091 69.0284 66.6881C59.461 68.8052 51.8699 73.0495 46.3239 76.1495C35.5743 82.1571 19.3333 91.2375 17.4291 108.43C17.0666 112.239 17.4463 116.035 18.5567 119.696C19.7447 123.641 21.2002 127.534 22.9146 131.349C19.0112 133.959 15.9275 137.025 13.4422 139.533C6.59609 145.599 2.22662 153.675 1.11916 162.329L1.07314 162.677L1.05012 163.028C1.0041 163.704 0.820008 167.274 1.63982 171.166C7.94807 201.072 38.7126 228.275 40.0186 229.419C48.0067 236.408 119.187 297.706 158.543 297.706C159.783 297.706 160.988 297.652 161.88 297.565L163.419 297.427C166.488 297.151 171.413 296.779 177.422 296.558C180.106 296.461 182.45 296.414 184.329 296.392L206.501 304.804L231.366 295.371C237.605 295.526 240.217 295.772 241.137 295.857C244.463 296.171 246.891 296.531 248.01 296.709L248.156 296.732C250.063 297.043 252.086 297.201 254.168 297.201C288.232 297.201 344.779 252.364 351.116 247.252C356.57 242.851 404.588 203.329 411.359 171.17C412.182 167.272 411.995 163.692 411.949 163.014L411.949 163.014ZM399.829 168.772C393.716 197.809 343.68 238.185 343.68 238.186C343.68 238.186 279.471 289.998 250.07 285.2L249.89 285.171C249.155 285.052 246.292 284.604 242.251 284.224C240.763 284.084 237.339 283.786 229.313 283.636L206.502 292.291L206.501 292.292V292.292L206.5 292.292L206.501 292.292L206.5 292.292L206.5 292.292L206.499 292.291V292.292L206.499 292.291L186.464 284.69C184.302 284.697 181.005 284.732 176.988 284.879C170.164 285.128 164.787 285.57 162.362 285.787C161.631 285.853 161.096 285.903 161.055 285.907C126.111 289.176 47.814 220.655 47.8136 220.655C47.8135 220.655 18.7514 195.222 13.1729 168.772C12.642 166.255 12.8058 163.8 12.8058 163.8C13.5706 157.819 16.6595 152.249 21.5573 148.017C25.9557 143.572 31.397 138.086 39.4614 137.421C35.3098 130.774 32.0633 123.705 29.8453 116.347C29.1726 114.126 28.9405 111.821 29.1587 109.532C30.3839 98.4735 42.7942 91.5365 52.1104 86.3288C59.5553 82.1673 69.1367 76.9412 81.349 77.0661C81.0587 73.9776 80.8636 70.8814 80.8386 67.7773C80.6592 64.0568 81.308 60.3406 82.7495 56.8359C88.0713 43.7083 103.178 38.4613 112.847 35.1034C112.848 35.1032 130.875 28.8421 146.29 32.2555C149.504 33.2192 152.606 34.4309 155.594 35.8333C156.387 32.3318 157.537 28.8956 159.117 25.5933C169.205 7.99461 243.794 7.99461 253.882 25.5933C255.462 28.8956 256.612 32.332 257.405 35.8335C260.393 34.4311 263.496 33.2192 266.71 32.2555H266.71C282.124 28.8421 300.152 35.1032 300.152 35.1034C309.821 38.4613 324.929 43.7083 330.25 56.8359C331.692 60.3406 332.341 64.0568 332.161 67.7773C332.137 70.8814 331.942 73.9776 331.651 77.0661C343.864 76.9409 353.446 82.1673 360.891 86.3288C370.207 91.5365 382.619 98.4735 383.842 109.532C384.061 111.821 383.827 114.126 383.155 116.347C380.937 123.705 377.69 130.774 373.539 137.421C381.604 138.087 387.046 143.572 391.443 148.017C396.341 152.249 399.431 157.819 400.194 163.8C400.194 163.8 400.359 166.254 399.829 168.772H399.829Z" fill="#EFBAAD"/>
<path d="M206.5 292.29L206.501 292.286L206.5 292.289L206.5 292.29Z" fill="#DDA297"/>
<path d="M411.972 315.024C411.428 317.392 410.428 320.745 408.477 324.401C407.78 325.708 405.051 330.617 398.372 336.393C390.448 343.246 382.225 346.49 377.373 348.358C369.56 351.367 362.754 352.651 358.882 353.363C354.866 354.102 351.419 354.521 348.847 354.771C350.334 342.232 351.82 329.693 353.307 317.154C372.862 316.444 392.417 315.734 411.972 315.024V315.024Z" fill="#E1A899"/>
<path d="M362.462 328.103C362.924 331.821 363.138 337.962 360.705 344.749C359.954 346.843 358.448 350.923 354.893 354.906C351.629 358.561 348.06 360.543 344.219 362.279C332.904 367.394 322.394 368.941 319.039 369.396C315.194 369.918 303.201 371.389 286.393 370.194C278.774 369.653 268.727 368.461 257.063 365.72L252.51 331.935L362.462 328.103L362.462 328.103Z" fill="#E7B0A2"/>
<path d="M1.0127 314.652C1.46035 317.209 2.39806 320.807 4.53556 324.793C7.72319 330.737 11.903 334.417 14.6406 336.784C22.565 343.638 30.7881 346.882 35.64 348.75C43.453 351.759 50.259 353.043 54.1305 353.755C58.1464 354.494 61.5935 354.913 64.1656 355.163C62.679 342.624 61.1923 330.085 59.7057 317.545C40.1414 316.581 20.577 315.616 1.0127 314.652Z" fill="#E1A899"/>
<path d="M49.9945 329.113C49.9106 331.826 50.0647 335.841 51.3131 340.472C51.9444 342.815 53.4497 348.194 57.5403 353.302C58.6648 354.706 62.0461 358.664 70.929 362.924C74.8027 364.782 81.5592 367.578 93.6206 369.474C96.4025 369.912 108.551 371.691 126.049 370.569C133.409 370.097 143.259 369.011 154.764 366.399C153.276 354.833 151.788 343.267 150.3 331.7C116.865 330.838 83.4297 329.975 49.9944 329.113H49.9945Z" fill="#E7B0A2"/>
<path d="M142.907 336.498C142.204 339.741 140.849 348.124 145.063 356.414C147.958 362.109 152.105 365.054 156.71 368.324C158.55 369.63 167.448 375.772 179.751 377.786C181.997 378.153 186.47 378.573 195.415 379.412C197.272 379.587 199.124 379.753 201.557 379.876C205.74 380.088 209.185 380.047 212.123 379.954C222.831 379.616 228.185 379.447 234.395 378.267C242.211 376.781 248.565 375.573 255.37 370.853C258.706 368.539 264.95 364.208 268.262 355.684C271.99 346.088 269.609 337.336 268.715 334.516C226.779 335.177 184.843 335.837 142.907 336.498H142.907Z" fill="#EFBAAD"/>
<path d="M134.505 280.866C117.442 282.461 101.139 283.984 80.0548 288.061C53.1295 293.267 31.0359 300.195 14.6409 306.205C12.4184 306.839 4.6119 309.188 1.75623 312.722C1.23603 313.366 0.932017 313.985 1.01297 314.651C1.30758 317.075 6.46377 318.218 6.89119 318.308C9.66201 319.108 13.6463 320.123 18.5434 320.908C23.1042 321.639 26.5229 321.853 30.4988 322.107C36.4501 322.487 43.8235 322.925 52.3654 323.358C51.7419 324.028 50.8782 325.132 50.3832 326.643C49.4431 329.513 50.2722 332.556 52.1176 334.724C53.7657 336.661 55.8108 337.411 59.0533 338.601C61.3635 339.449 64.9225 340.494 69.5862 340.877C80.2208 341.645 89.3472 341.761 96.4703 341.659C107.16 341.506 115.411 340.834 122.363 340.251C130.765 339.546 137.814 338.728 142.991 338.061C143.626 338.51 144.577 339.159 145.779 339.886C151.059 343.081 155.871 344.578 160.026 345.778C171.047 348.959 176.557 350.55 184.308 351.721C186.54 352.058 197.331 353.634 211.874 353.181C219.34 352.949 228.998 352.594 240.926 349.584C250.199 347.243 256.947 344.282 259.696 343.014C263.434 341.29 266.477 339.611 268.74 338.27C270.428 338.493 272.741 338.787 275.492 339.104C286.287 340.346 294.618 340.868 297.42 341.033C303.072 341.365 300.805 341.101 326.163 341.607C326.163 341.607 334.999 341.783 345.675 340.616C347.127 340.457 351.311 339.967 355.834 337.853C360.437 335.701 361.588 333.646 361.843 333.16C363.048 330.866 362.598 328.704 362.462 328.103C361.929 325.728 360.395 324.205 359.737 323.619C360.964 323.654 362.715 323.688 364.816 323.671C366.871 323.655 368.53 323.595 370.009 323.508C375.178 323.202 380.06 322.704 381.665 322.524C386.083 322.029 391.978 321.326 399.087 320.36C400.446 320.096 406.848 318.817 410.098 316.998C411.263 316.346 411.842 315.725 411.972 315.025C412.077 314.459 411.888 313.85 411.337 313.139C408.857 309.937 404.121 308.629 404.121 308.629C398.858 306.676 392.06 304.266 384.035 301.708C378.311 299.884 367.474 296.452 353.914 293.223C338.589 289.573 327.136 287.933 311.652 285.715C298.589 283.844 286.823 282.502 276.421 281.492C261.025 279.996 237.08 277.73 205.494 277.581C196.54 277.539 169.602 277.586 134.505 280.866L134.505 280.866Z" fill="#F1D3CC"/>
<path d="M82.2847 295.152C79.4807 295.597 76.293 296.132 72.6287 296.84C71.3945 297.078 67.3354 297.871 62.2145 299.063C57.1548 300.24 50.0904 302.031 41.4435 304.673C38.6911 305.226 36.7616 306.301 35.5825 307.108C34.308 307.98 32.6325 309.126 32.7106 310.549C32.7364 311.018 32.9664 311.774 34.227 312.675C37.5772 315.07 43.1286 314.735 48.9389 314.8C53.3277 314.849 57.8224 314.838 62.4184 314.76C67.4746 314.674 72.4066 314.509 77.2081 314.279C76.5614 314.749 75.6773 315.453 74.7306 316.423C73.7935 317.383 73.08 318.114 72.4858 319.25C72.1085 319.971 71.0636 321.969 71.5883 324.063C71.9067 325.334 72.7276 326.34 73.962 327.293C76.2435 329.056 80.3842 330.985 95.2144 331.027C96.448 331.03 97.3497 331.024 97.9812 331.012C101.159 330.949 104.498 330.709 114.831 330.102C123.246 329.608 128.946 329.208 135.495 328.568C137.668 328.355 140.128 328.031 143.321 327.483C146.59 326.921 149.247 326.362 150.949 325.986C152.31 326.698 154.281 327.68 156.71 328.712C164.033 331.825 169.966 333.038 178.246 334.592C190.593 336.91 196.767 338.069 198.692 338.227C211.108 339.25 220.766 337.735 227.856 336.624C238.287 334.988 245.378 332.834 247.306 332.222C252.27 330.648 256.406 328.975 259.531 327.588C260.258 327.634 261.118 327.69 262.085 327.754C262.085 327.754 263.892 327.952 265.704 327.999C275.935 328.265 300.326 330.877 300.326 330.877C300.326 330.877 329.993 334.055 338.754 328.178C341.029 326.651 341.711 324.596 341.712 324.596C342.474 322.314 341.631 320.192 341.193 319.09C340.029 316.162 337.861 314.56 336.834 313.904C339.766 314.291 343.737 314.704 348.458 314.867C355.867 315.123 361.211 314.627 362.573 314.493C367.526 314.005 379.491 312.826 379.724 309.989C379.845 308.509 376.729 307.135 372.563 305.298C366.605 302.671 361.299 301.359 357.414 300.653C342.254 297.216 322.612 293.315 299.464 290.147C295.286 289.575 281.346 287.704 262.793 286.133C247.201 284.812 224.847 282.979 195.768 283.421C168.145 283.842 147.207 286.122 133.08 287.697C120.225 289.13 107.578 291.137 82.2847 295.152Z" fill="#EFBAAD"/>
<path d="M264.422 286.391C263.624 286.276 262.808 286.174 262.001 286.066C246.445 284.752 224.38 282.986 195.768 283.421C178.895 283.678 164.548 284.63 152.693 285.69C148.838 286.172 144.837 286.735 140.957 287.391C107.803 293 70.9505 309.647 60.0493 314.767C60.8508 314.757 61.6108 314.773 62.4187 314.76C67.4749 314.673 72.4068 314.509 77.2084 314.279C76.5617 314.749 75.6774 315.453 74.7309 316.423C73.7938 317.383 73.0801 318.114 72.486 319.25C72.1088 319.971 71.0638 321.969 71.5885 324.063C71.9069 325.334 72.7277 326.34 73.9622 327.293C76.2437 329.056 80.3843 330.985 95.2147 331.027C96.4482 331.03 97.3499 331.024 97.9815 331.012C101.159 330.949 104.498 330.709 114.831 330.102C123.247 329.608 128.946 329.208 135.495 328.568C137.668 328.355 140.128 328.031 143.321 327.483C146.59 326.921 149.247 326.362 150.95 325.986C152.31 326.698 154.281 327.68 156.71 328.712C164.034 331.825 169.966 333.038 178.246 334.592C190.593 336.91 196.767 338.069 198.692 338.227C211.108 339.25 220.766 337.735 227.857 336.624C238.288 334.988 245.378 332.834 247.306 332.222C252.271 330.648 256.406 328.975 259.532 327.588C260.258 327.634 261.118 327.69 262.085 327.754C262.085 327.754 263.892 327.952 265.704 327.999C275.935 328.265 300.326 330.877 300.326 330.877C300.327 330.877 329.993 334.055 338.754 328.177C341.029 326.651 341.712 324.596 341.712 324.596C342.475 322.314 341.631 320.191 341.193 319.09C340.029 316.162 337.861 314.56 336.834 313.904C339.766 314.291 343.737 314.704 348.458 314.867C348.992 314.885 349.491 314.892 350.003 314.903C312.378 295.554 282.246 288.957 264.422 286.391V286.391Z" fill="#D78378"/>
</g>
<g filter="url(#filter1_d_1655_5738)">
<path d="M122.859 223.356C176.681 223.329 230.502 223.302 284.323 223.274C284.727 215.237 284.59 208.681 284.4 204.275C283.65 186.874 280.796 173.133 278.098 160.405C276.712 153.869 275.415 148.585 274.563 145.238C263.57 143.583 252.058 142.243 240.057 141.324C200.043 138.26 163.828 140.589 132.62 145.238C131.513 149.591 130.013 155.808 128.47 163.34C125.976 175.509 123.68 186.926 122.859 201.502C122.556 206.89 122.361 214.365 122.859 223.356Z" fill="#664C37"/>
<path d="M125.477 223.356H289.324C286.389 247.66 283.454 271.964 280.519 296.268C185.621 296.302 134.615 296.32 134.614 296.32C134.614 296.315 131.04 267.777 125.477 223.356Z" fill="#664C37"/>
<path d="M133.179 145.158C130.514 164.091 127.85 183.024 125.186 201.957C178.513 201.7 231.84 201.443 285.167 201.186C284.984 197.362 284.801 193.538 284.619 189.715C268.458 189.352 252.297 188.988 236.137 188.625C235.503 187.89 234.516 186.928 233.115 186.206C231.563 185.406 230.138 185.169 229.236 185.165C226.093 185.149 210.096 184.955 188.147 184.818C187.049 185.02 185.563 185.422 183.94 186.264C182.568 186.976 181.503 187.793 180.732 188.483L149.23 189.001C151.578 173.436 153.926 157.87 156.274 142.304C148.305 143.097 140.601 144.061 133.179 145.158Z" fill="#563D2C"/>
<path d="M128.916 250.817C131.813 265.64 134.71 280.464 137.607 295.288C155.638 294.729 173.668 294.17 191.699 293.611C187.193 292.465 183.461 291.865 180.881 291.529C176.856 291.004 174.499 290.973 166.074 290.43C162.175 290.178 158.999 289.947 156.949 289.793L148.871 223.356H125.477C126.731 233.368 127.882 242.563 128.916 250.817L128.916 250.817Z" fill="#563D2C"/>
<path d="M287.644 223.356H125.477C126.028 229.286 126.559 234.996 127.069 240.489C144.338 240.342 161.608 240.194 178.877 240.046C179.336 240.633 179.984 241.354 180.844 242.014C180.844 242.014 182.33 243.453 184.268 243.677C187.102 244.004 204.132 244.075 227.469 243.729C228.567 243.404 230.346 242.693 232.168 241.026C233.641 239.679 234.606 238.198 235.191 237.136C253.04 237.409 270.889 237.682 288.737 237.955C288.373 233.088 288.009 228.222 287.644 223.356H287.644Z" fill="#563D2C"/>
<path d="M132.98 155.998C154.572 153.776 178.283 152.342 203.828 152.293C230.422 152.242 255.048 153.7 277.384 155.998L278.1 159.236C255.264 157.14 230.383 155.843 203.719 155.879C177.889 155.915 153.744 157.197 131.523 159.236C132.009 158.157 132.495 157.077 132.98 155.998Z" fill="#563D2C"/>
<path d="M132.98 181.15C154.572 178.929 178.283 177.495 203.828 177.446C230.422 177.395 255.048 178.852 277.384 181.15L278.1 184.389C255.264 182.292 230.383 180.995 203.719 181.032C177.889 181.067 153.744 182.349 131.523 184.389C132.009 183.309 132.495 182.23 132.98 181.15Z" fill="#563D2C"/>
<path d="M132.086 272.05C157.278 271.807 182.663 271.68 208.24 271.673C235.223 271.666 261.993 271.794 288.548 272.05L289.323 275.289C262.273 275.4 235.221 275.455 208.167 275.452C182.279 275.45 156.392 275.395 130.507 275.289C131.034 274.209 131.56 273.13 132.086 272.05Z" fill="#563D2C"/>
<path d="M129.069 246.443C154.26 246.201 179.646 246.073 205.223 246.067C232.206 246.06 258.976 246.187 285.53 246.443L286.306 249.682C259.256 249.793 232.204 249.848 205.15 249.845C179.261 249.843 153.375 249.789 127.49 249.682C128.016 248.602 128.543 247.523 129.069 246.443Z" fill="#563D2C"/>
<path d="M103.123 225.703L118.704 301.629L141.335 300.713C137.213 275.797 133.091 250.881 128.969 225.965C120.353 225.878 111.738 225.791 103.123 225.703H103.123Z" fill="#AD6A11"/>
<path d="M310.572 225.703L294.99 301.629L272.359 300.713C276.481 275.797 280.603 250.881 284.725 225.965C293.341 225.878 301.956 225.791 310.572 225.703Z" fill="#AD6A11"/>
<path d="M310.572 225.703L297.906 225.832C293.368 249.543 288.831 273.254 284.293 296.966L295.923 297.084C300.806 273.29 305.689 249.497 310.572 225.703Z" fill="#9C6010"/>
<path d="M98.918 204.365L116.355 147.028C116.732 146.326 117.305 145.364 118.127 144.323C118.791 143.482 119.496 142.589 120.601 141.792C121.301 141.287 122.614 140.494 124.558 140.177C129.257 140.236 133.957 140.294 138.656 140.352C138.878 140.416 139.219 140.533 139.604 140.745C140.737 141.367 141.362 142.322 141.748 142.926C141.934 143.219 142.21 143.655 142.448 144.279C142.939 145.561 142.944 146.769 142.86 147.595C142.739 148.351 142.615 149.107 142.489 149.864C139.471 168.03 135.413 185.511 130.494 202.314L98.918 204.365H98.918Z" fill="#C47A18"/>
<path d="M311.415 204.125L293.978 146.788C293.602 146.086 293.028 145.124 292.206 144.083C291.542 143.242 290.837 142.349 289.733 141.552C289.032 141.047 287.72 140.254 285.775 139.937C281.076 139.996 276.377 140.054 271.677 140.112C271.455 140.176 271.115 140.293 270.729 140.505C269.596 141.127 268.972 142.082 268.586 142.686C268.399 142.979 268.124 143.415 267.885 144.039C267.395 145.321 267.389 146.529 267.473 147.355C267.594 148.111 267.718 148.867 267.844 149.624C270.862 167.79 274.921 185.271 279.839 202.074L311.415 204.125L311.415 204.125Z" fill="#C47A18"/>
<path d="M279.839 202.074C290.365 202.758 300.89 203.442 311.415 204.125C310.012 199.509 308.608 194.893 307.204 190.276C296.923 190.022 286.641 189.768 276.36 189.513C277.466 193.741 278.626 197.929 279.839 202.074V202.074Z" fill="#AD6A11"/>
<path d="M103.504 189.286C101.996 194.244 100.488 199.203 98.98 204.162C99.6694 204.184 100.359 204.205 101.048 204.227C110.864 203.589 120.679 202.952 130.494 202.314C131.773 197.946 132.99 193.529 134.15 189.068L103.504 189.286H103.504Z" fill="#AD6A11"/>
<path d="M106.193 240.665C114.574 240.534 122.955 240.402 131.336 240.271C130.548 235.508 129.76 230.745 128.972 225.982C120.356 225.893 111.741 225.805 103.125 225.716C104.148 230.699 105.171 235.682 106.193 240.665H106.193Z" fill="#9C6010"/>
<path d="M282.726 238.051C291.128 238.224 299.53 238.397 307.931 238.569C308.811 234.281 309.692 229.992 310.572 225.703C301.954 225.806 293.336 225.909 284.718 226.012C284.054 230.025 283.39 234.038 282.726 238.051Z" fill="#9C6010"/>
<path d="M322.574 201.582C322.119 200.561 321.448 200.087 321.072 199.829C320.329 199.545 319.562 199.284 318.769 199.05C312.626 197.236 102.374 197.236 96.2308 199.05C95.4384 199.284 94.6706 199.545 93.9277 199.829C93.5521 200.087 92.8811 200.561 92.4256 201.582C92.0983 202.315 92.0203 203.02 92 203.432C92.4757 208.236 92.9513 213.04 93.427 217.843C93.5007 219.045 93.7777 221.298 94.9791 223.394C95.2984 223.951 95.8533 224.899 96.8567 225.666C96.8568 225.666 97.7975 226.387 98.9596 226.64C101.376 227.165 313.624 227.165 316.04 226.64C317.202 226.387 318.143 225.666 318.143 225.666C319.147 224.899 319.702 223.951 320.021 223.394C321.222 221.298 321.499 219.045 321.573 217.843C322.049 213.04 322.524 208.236 323 203.432C322.98 203.02 322.902 202.315 322.574 201.582H322.574Z" fill="#C47A18"/>
<path d="M93.1987 215.536C93.2749 216.305 93.351 217.074 93.4272 217.843C93.5009 219.045 93.7779 221.298 94.9793 223.394C95.2986 223.951 95.8535 224.899 96.8569 225.666C96.8569 225.666 97.7978 226.387 98.9598 226.64C101.376 227.165 313.624 227.165 316.041 226.64C317.203 226.387 318.143 225.666 318.144 225.666C319.147 224.899 319.702 223.951 320.021 223.394C321.222 221.298 321.5 219.045 321.573 217.843L321.772 215.832C245.581 215.733 169.39 215.635 93.1987 215.536H93.1987Z" fill="#AD6A11"/>
<path d="M300.702 294.757C300.331 294.071 299.784 293.752 299.478 293.578C298.872 293.388 298.246 293.212 297.6 293.055C292.592 291.835 121.205 291.835 116.197 293.055C115.551 293.212 114.925 293.388 114.319 293.578C114.013 293.752 113.466 294.071 113.095 294.757C112.828 295.249 112.765 295.724 112.748 296C113.136 299.229 113.524 302.458 113.911 305.687C113.971 306.495 114.197 308.01 115.176 309.418C115.437 309.792 115.889 310.43 116.707 310.945C116.707 310.945 117.474 311.43 118.421 311.6C120.391 311.953 293.406 311.953 295.376 311.6C296.323 311.43 297.09 310.945 297.09 310.945C297.908 310.43 298.36 309.792 298.621 309.418C299.6 308.01 299.826 306.495 299.886 305.687C300.273 302.458 300.661 299.229 301.049 296C301.032 295.724 300.969 295.249 300.702 294.757H300.702Z" fill="#C47A18"/>
<path d="M113.755 304.389L113.911 305.687C113.971 306.495 114.197 308.01 115.177 309.418C115.437 309.792 115.889 310.43 116.707 310.945C116.707 310.945 117.474 311.43 118.421 311.6C120.391 311.953 293.406 311.953 295.376 311.6C296.323 311.43 297.09 310.945 297.09 310.945C297.908 310.43 298.36 309.792 298.621 309.418C299.6 308.01 299.826 306.495 299.886 305.687L299.909 305.496C237.858 305.127 175.807 304.758 113.755 304.389H113.755Z" fill="#AD6A11"/>
<path d="M281.119 311.75C289.719 311.71 295.04 311.66 295.376 311.6C296.323 311.43 297.09 310.945 297.09 310.945C297.908 310.43 298.36 309.792 298.621 309.418C299.6 308.009 299.826 306.495 299.886 305.687C300.274 302.458 300.661 299.229 301.049 296C301.032 295.724 300.969 295.249 300.702 294.757C300.331 294.071 299.784 293.752 299.478 293.578C298.872 293.388 298.246 293.212 297.6 293.055C296.843 292.87 292.276 292.714 285.061 292.585C283.747 298.973 282.433 305.362 281.119 311.75H281.119Z" fill="#AD6A11"/>
<path d="M222.346 191.467H191.45C185.881 191.467 181.366 196.246 181.366 202.141V222.582C181.366 228.477 185.881 233.257 191.45 233.257H222.346C227.916 233.257 232.431 228.477 232.431 222.582V202.141C232.431 196.246 227.916 191.467 222.346 191.467Z" fill="#E0973E"/>
<path d="M213.386 206.716C213.388 203.507 210.847 200.484 207.5 200.484C204.249 200.484 201.613 203.274 201.613 206.716C201.613 209.332 203.138 211.568 205.297 212.491C204.286 216.379 203.275 220.267 202.264 224.154C205.754 224.182 209.245 224.211 212.736 224.239C211.663 220.348 210.59 216.457 209.517 212.566C211.858 211.528 213.385 209.202 213.386 206.716V206.716Z" fill="#49301F"/>
</g>
<defs>
<filter id="filter0_d_1655_5738" x="0" y="0.708008" width="421" height="394.322" filterUnits="userSpaceOnUse" color-interpolation-filters="sRGB">
<feFlood flood-opacity="0" result="BackgroundImageFix"/>
<feColorMatrix in="SourceAlpha" type="matrix" values="0 0 0 0 0 0 0 0 0 0 0 0 0 0 0 0 0 0 127 0" result="hardAlpha"/>
<feOffset dx="4" dy="10"/>
<feGaussianBlur stdDeviation="2.5"/>
<feComposite in2="hardAlpha" operator="out"/>
<feColorMatrix type="matrix" values="0 0 0 0 0.591667 0 0 0 0 0.13066 0 0 0 0 0.351943 0 0 0 0.2 0"/>
<feBlend mode="normal" in2="BackgroundImageFix" result="effect1_dropShadow_1655_5738"/>
<feBlend mode="normal" in="SourceGraphic" in2="effect1_dropShadow_1655_5738" result="shape"/>
</filter>
<filter id="filter1_d_1655_5738" x="88" y="138.937" width="243" height="183.927" filterUnits="userSpaceOnUse" color-interpolation-filters="sRGB">
<feFlood flood-opacity="0" result="BackgroundImageFix"/>
<feColorMatrix in="SourceAlpha" type="matrix" values="0 0 0 0 0 0 0 0 0 0 0 0 0 0 0 0 0 0 127 0" result="hardAlpha"/>
<feOffset dx="2" dy="5"/>
<feGaussianBlur stdDeviation="3"/>
<feComposite in2="hardAlpha" operator="out"/>
<feColorMatrix type="matrix" values="0 0 0 0 0.491667 0 0 0 0 0.340397 0 0 0 0 0.200764 0 0 0 0.25 0"/>
<feBlend mode="normal" in2="BackgroundImageFix" result="effect1_dropShadow_1655_5738"/>
<feBlend mode="normal" in="SourceGraphic" in2="effect1_dropShadow_1655_5738" result="shape"/>
</filter>
</defs>
</svg>
