<svg width="1149" height="1031" viewBox="0 0 1149 1031" fill="none" xmlns="http://www.w3.org/2000/svg">
<path d="M672.57 522.29C754.832 494.016 833.305 480.248 893.65 480.806C923.83 481.085 949.39 484.947 968.602 492.309C987.823 499.674 1000.48 510.455 1005.3 524.455C1010.11 538.455 1006.75 554.742 996.118 572.368C985.492 589.985 967.708 608.745 944.077 627.519C896.826 665.059 826.471 702.444 744.208 730.719C661.945 758.993 583.473 772.761 523.127 772.203C492.948 771.924 467.388 768.062 448.176 760.7C428.955 753.335 416.294 742.554 411.482 728.554C406.67 714.554 410.028 698.267 420.659 680.641C431.285 663.024 449.07 644.264 472.701 625.49C519.951 587.95 590.307 550.565 672.57 522.29Z" stroke="#0D1563" stroke-width="3"/>
<path d="M538.481 405.014C620.743 376.739 699.216 362.971 759.561 363.53C789.741 363.809 815.301 367.671 834.513 375.033C853.734 382.398 866.395 393.178 871.207 407.179C876.019 421.179 872.661 437.465 862.029 455.091C851.403 472.708 833.619 491.468 809.988 510.243C762.737 547.782 692.382 585.168 610.119 613.442C527.856 641.717 449.384 655.485 389.038 654.926C358.859 654.647 333.299 650.785 314.087 643.424C294.866 636.058 282.205 625.278 277.393 611.278C272.581 597.277 275.939 580.991 286.57 563.365C297.196 545.748 314.981 526.988 338.612 508.213C385.862 470.674 456.218 433.288 538.481 405.014Z" fill="#9D66C8" stroke="#0D1563" stroke-width="3"/>
<path d="M404.392 299.38C486.654 271.106 565.127 257.338 625.472 257.896C655.652 258.176 681.212 262.038 700.424 269.399C719.645 276.765 732.306 287.545 737.118 301.545C741.93 315.546 738.572 331.832 727.94 349.458C717.314 367.075 699.53 385.835 675.899 404.609C628.648 442.149 558.293 479.535 476.03 507.809C393.767 536.084 315.295 549.851 254.949 549.293C224.77 549.014 199.21 545.152 179.998 537.79C160.777 530.425 148.116 519.645 143.304 505.644C138.492 491.644 141.85 475.358 152.481 457.732C163.107 440.115 180.892 421.354 204.523 402.58C251.773 365.04 322.129 327.655 404.392 299.38Z" stroke="#0D1563" stroke-width="3"/>
</svg>
