<svg width="655" height="651" viewBox="0 0 655 651" fill="none" xmlns="http://www.w3.org/2000/svg">
<path d="M321.578 328.289C373.572 380.467 413.107 435.123 435.02 481.268C445.979 504.347 452.492 525.221 453.997 542.544C455.503 559.878 451.983 573.436 443.168 582.22C434.352 591.005 420.783 594.477 403.454 592.91C386.135 591.344 365.285 584.757 342.245 573.716C296.177 551.642 241.661 511.913 189.667 459.736C137.673 407.558 98.1371 352.902 76.225 306.757C65.2659 283.677 58.7522 262.804 57.2474 245.48C55.7417 228.146 59.2614 214.589 68.0768 205.804C76.8922 197.02 90.462 193.548 107.791 195.115C125.109 196.681 145.959 203.268 169 214.309C215.067 236.383 269.584 276.111 321.578 328.289Z" stroke="#0D1563" stroke-width="3"/>
<path d="M397.425 257.111C449.419 309.289 488.955 363.945 510.867 410.09C521.826 433.169 528.34 454.043 529.845 471.366C531.351 488.701 527.831 502.258 519.015 511.042C510.2 519.827 496.63 523.299 479.301 521.732C461.983 520.166 441.133 513.579 418.093 502.538C372.025 480.464 317.508 440.735 265.514 388.558C213.521 336.38 173.985 281.724 152.073 235.579C141.114 212.499 134.6 191.626 133.095 174.302C131.589 156.968 135.109 143.411 143.924 134.626C152.74 125.842 166.31 122.37 183.638 123.937C200.957 125.503 221.807 132.09 244.847 143.131C290.915 165.205 345.431 204.933 397.425 257.111Z" fill="#9D66C8" stroke="#0D1563" stroke-width="3"/>
<path d="M464.443 190.329C516.437 242.507 555.973 297.163 577.885 343.309C588.844 366.388 595.358 387.261 596.863 404.585C598.369 421.919 594.849 435.476 586.034 444.261C577.218 453.045 563.648 456.517 546.32 454.95C529.001 453.384 508.151 446.797 485.111 435.756C439.043 413.682 384.527 373.954 332.533 321.776C280.539 269.598 241.003 214.942 219.091 168.797C208.132 145.718 201.618 124.844 200.113 107.521C198.607 90.1866 202.127 76.629 210.942 67.8447C219.758 59.0603 233.328 55.5884 250.657 57.1552C267.975 58.7212 288.825 65.3084 311.865 76.3488C357.933 98.4235 412.45 138.152 464.443 190.329Z" stroke="#0D1563" stroke-width="3"/>
</svg>
