<svg width="114" height="172" viewBox="0 0 114 172" fill="none" xmlns="http://www.w3.org/2000/svg">
<path d="M61.2838 15.1922C61.7464 12.9887 62.4663 9.55902 60.5929 5.87921C59.5763 3.68978 57.8373 1.91493 55.6665 0.851205C53.3633 -0.157427 50.7661 -0.273939 48.3814 0.524416C49.5595 0.214665 50.7885 0.147811 51.9932 0.327945C53.198 0.508068 54.3534 0.931408 55.3887 1.57208C57.0502 2.72628 58.2853 4.39349 58.9038 6.31699C58.9509 6.46702 58.9838 6.5843 59.0051 6.66048C59.6058 8.90331 59.3709 11.2874 58.3441 13.3705C58.653 11.0445 58.1344 8.68399 56.8784 6.70042C56.0835 5.33856 54.8958 4.24718 53.4702 3.56868C52.1332 2.98332 50.6533 2.80225 49.2141 3.04794C50.5375 3.10897 51.8204 3.52228 52.9298 4.24474C54.1739 5.07655 55.1411 6.25957 55.7078 7.64283C56.4214 9.33589 56.5611 11.2154 56.1052 12.995C55.5958 10.7249 54.3591 8.68219 52.5824 7.17602C51.2322 5.8808 49.4741 5.09223 47.607 4.94432C46.3361 4.90523 45.0771 5.1987 43.9551 5.79562C45.119 5.46898 46.3463 5.43709 47.5258 5.70281C49.123 6.11887 50.5469 7.02971 51.5924 8.30448C54.8414 11.8804 54.2773 17.0546 54.1547 18.0277C54.5345 18.1932 58.0629 19.678 60.0375 17.978C60.4196 17.6489 60.8884 17.076 61.2838 15.1922Z" fill="#3A1919"/>
<path d="M2.79004 138.681C7.43006 130.3 12.902 117.467 12.7442 101.771C12.5764 85.0758 6.21006 81.3197 6.94418 65.7435C7.11455 62.1305 8.69753 36.9843 28.8486 23.0171C37.1919 17.391 47.0525 14.4289 57.122 14.5237C67.1916 14.6184 76.9944 17.7656 85.23 23.5477C105.434 38.0568 106.137 63.2363 106.247 67.1778C106.526 77.1785 103.939 79.4621 102.836 91.015C101.116 109.014 105.412 124.213 109.538 134.566C92.4197 138.386 74.9957 140.682 57.4706 141.424C39.1979 142.197 20.8928 141.279 2.79004 138.681Z" fill="#603A33"/>
<path d="M28.2686 141.501C28.4672 138.091 29.5277 124.119 37.1072 113.774C41.8279 107.333 47.5622 104.373 49.1878 103.786C54.0356 102.085 59.3426 102.232 64.0876 104.202C69.1355 106.395 72.1961 110.237 73.8994 112.447C81.4392 122.228 82.452 135.163 82.6478 139.411C74.1209 140.397 64.9159 141.148 55.1043 141.515C45.5894 141.87 36.6188 141.821 28.2686 141.501Z" fill="#936F6A"/>
<path d="M69.4299 48.8755H69.4298C67.7044 48.8755 66.3057 50.2711 66.3057 51.9928V53.7173C66.3057 55.439 67.7044 56.8347 69.4298 56.8347H69.4299C71.1553 56.8347 72.5541 55.439 72.5541 53.7173V51.9928C72.5541 50.2711 71.1553 48.8755 69.4299 48.8755Z" fill="#3A1919"/>
<path d="M42.7746 48.8755C41.0491 48.8755 39.6504 50.2711 39.6504 51.9928V53.7173C39.6504 55.439 41.0491 56.8347 42.7746 56.8347C44.5001 56.8347 45.8988 55.439 45.8988 53.7173V51.9928C45.8988 50.2711 44.5001 48.8755 42.7746 48.8755Z" fill="#3A1919"/>
<path d="M28.0871 76.6467C31.3525 76.6467 33.9996 74.8065 33.9996 72.5368C33.9996 70.267 31.3525 68.4269 28.0871 68.4269C24.8217 68.4269 22.1747 70.267 22.1747 72.5368C22.1747 74.8065 24.8217 76.6467 28.0871 76.6467Z" fill="#893838"/>
<path d="M82.931 76.6467C86.1964 76.6467 88.8438 74.8066 88.8438 72.5369C88.8438 70.267 86.1964 68.427 82.931 68.427C79.6656 68.427 77.0186 70.267 77.0186 72.5369C77.0186 74.8066 79.6656 76.6467 82.931 76.6467Z" fill="#893838"/>
<path d="M79.9478 64.5379C77.503 65.0502 75.1925 66.066 73.1639 67.5205C72.1316 68.281 71.191 69.1581 70.3608 70.1343C70.3486 70.1465 70.3373 70.1593 70.3267 70.1728L70.3057 70.1966L70.3109 70.2007C70.2576 70.2775 70.2315 70.37 70.2371 70.4633C70.2432 70.5467 70.2738 70.6264 70.3251 70.6925C70.3764 70.7586 70.446 70.8082 70.5253 70.8351C70.6046 70.8619 70.6901 70.8649 70.7711 70.8436C70.8522 70.8223 70.9251 70.7776 70.9808 70.7151L70.9821 70.7162L70.9857 70.7113C70.9901 70.7062 70.9931 70.7003 70.9975 70.6949C71.7814 69.578 72.7236 68.5805 73.7947 67.7337C75.6119 66.3474 77.7168 65.3842 79.9554 64.9148C83.4208 64.0807 87.0088 63.8793 90.5459 64.3203C87.0399 63.6187 83.4221 63.693 79.9478 64.5379Z" fill="#3A1919"/>
<path d="M81.8818 70.9313C79.5517 70.7478 77.209 71.0516 75.0033 71.8234C73.8755 72.2345 72.7993 72.7743 71.796 73.4322C71.7818 73.4398 71.7682 73.4484 71.7552 73.4577L71.7299 73.4735L71.7336 73.4786C71.6654 73.5336 71.6176 73.6097 71.5978 73.6948C71.5813 73.7713 71.5878 73.851 71.6163 73.9238C71.6448 73.9967 71.6942 74.0595 71.7583 74.1046C71.8224 74.1496 71.8984 74.1747 71.9768 74.1769C72.0552 74.179 72.1324 74.1582 72.199 74.1167L72.1999 74.118L72.2044 74.1146L72.2193 74.103C73.2183 73.3065 74.3279 72.6591 75.5133 72.1808C77.5111 71.4146 79.6554 71.104 81.7891 71.2717C85.1206 71.435 88.3954 72.1985 91.4541 73.5255C88.4918 71.9729 85.2242 71.0873 81.8818 70.9313Z" fill="#3A1919"/>
<path d="M32.0495 64.968C34.4942 65.4803 36.8048 66.4961 38.8334 67.9506C39.8657 68.7112 40.8063 69.5882 41.6365 70.5645C41.6486 70.5766 41.66 70.5894 41.6705 70.603L41.6916 70.6267L41.6863 70.6307C41.7397 70.7077 41.7657 70.8002 41.7603 70.8934C41.7541 70.9768 41.7235 71.0566 41.6722 71.1227C41.6209 71.1888 41.5513 71.2384 41.472 71.2652C41.3926 71.2921 41.3071 71.295 41.2262 71.2738C41.1451 71.2524 41.0722 71.2077 41.0165 71.1453L41.0151 71.1463L41.0116 71.1414C41.0071 71.1363 41.0041 71.1304 40.9998 71.125C40.216 70.0081 39.2737 69.0106 38.2026 68.1638C36.3854 66.7775 34.2804 65.8144 32.0419 65.345C28.5764 64.5108 24.9884 64.3094 21.4512 64.7505C24.9573 64.0489 28.5752 64.1232 32.0495 64.968Z" fill="#3A1919"/>
<path d="M29.9665 70.9313C32.2966 70.7478 34.6393 71.0517 36.845 71.8234C37.9728 72.2345 39.049 72.7743 40.0525 73.4323C40.0666 73.4399 40.0801 73.4485 40.0932 73.4578L40.1184 73.4736L40.1147 73.4787C40.1829 73.5337 40.2307 73.6097 40.2505 73.6949C40.267 73.7714 40.2606 73.8511 40.2321 73.9239C40.2036 73.9968 40.1541 74.0596 40.09 74.1046C40.0259 74.1496 39.9499 74.1748 39.8715 74.177C39.7931 74.1791 39.7159 74.1582 39.6493 74.1168L39.6484 74.1181L39.6439 74.1147L39.629 74.103C38.63 73.3066 37.5205 72.6592 36.335 72.1809C34.3372 71.4147 32.1929 71.104 30.0592 71.2718C26.7277 71.435 23.4534 72.1986 20.3945 73.5256C23.3566 71.9729 26.6241 71.0874 29.9665 70.9313Z" fill="#3A1919"/>
<path d="M66.2479 19.1755C70.2235 20.8932 73.6528 23.6626 76.1649 27.1843C74.6423 25.7543 72.9542 24.274 71.0924 22.7827C69.4286 21.4498 67.8049 20.2514 66.2479 19.1755Z" fill="#965050"/>
<path d="M69.6133 24.8018C72.6465 26.5768 75.1355 29.1454 76.8114 32.23C75.7261 30.9281 74.5122 29.5693 73.1597 28.1846C71.951 26.9471 70.7612 25.8217 69.6133 24.8018Z" fill="#965050"/>
<path d="M75.3701 23.9924C78.4331 25.7158 80.9656 28.2419 82.6937 31.2976C81.5863 30.0142 80.3496 28.6762 78.9736 27.3147C77.744 26.0978 76.5353 24.9928 75.3701 23.9924Z" fill="#965050"/>
<path d="M76.6596 141.835C76.0313 138.261 75.6146 134.654 75.4116 131.03C75.0944 125.394 75.3678 121.055 74.8016 120.987C74.0317 120.894 74.459 128.42 69.5403 133.845C67.923 135.659 65.9181 137.087 63.6734 138.025C61.4287 138.963 59.0017 139.384 56.5716 139.26C54.1415 139.136 51.7704 138.469 49.6334 137.308C47.4963 136.147 45.6481 134.521 44.225 132.552C40.7576 127.871 41.0618 122.549 39.8214 122.585C38.9251 122.611 38.5205 125.397 37.4768 128.691C36.1753 132.769 34.232 136.615 31.7197 140.085C32.0586 140.326 32.4147 140.6 32.7804 140.908C33.1505 141.219 33.4839 141.528 33.7824 141.824C35.98 141.82 39.5231 141.814 43.9243 141.811C47.3752 141.807 50.7097 141.805 54.9968 141.81C58.496 141.813 60.353 141.821 65.9138 141.829C70.3759 141.835 74.072 141.836 76.6596 141.835Z" fill="#7F5B58"/>
<path d="M12.8854 109.194C8.66065 118.652 5.68699 126.406 3.69695 131.931C2.98519 133.771 2.39082 135.655 1.91723 137.57C0.0215944 145.492 -2.51726 156.102 5.68455 160.616C8.70102 162.277 13.061 162.708 22.5063 162.506C27.601 162.398 31.5585 161.781 34.1594 159.276C35.9506 157.551 37.1152 153.519 37.4304 150.807C37.6441 148.967 37.6856 148.091 37.9995 146.439C38.7028 143.385 39.1753 140.282 39.4129 137.157C39.7412 134.034 40.2568 129.053 40.5566 122.354C40.8116 116.657 40.9135 109.655 40.5566 101.614C39.0579 104.024 37.2586 106.862 35.1809 110.034C30.368 117.381 28.7177 119.405 25.873 121.349C25.2715 121.76 19.1413 125.998 15.8478 124.807C12.7113 123.673 10.8546 117.152 12.8854 109.194Z" fill="#603A33"/>
<path d="M101.114 111.323C105.339 120.781 108.312 128.534 110.303 134.06C111.014 135.9 111.608 137.784 112.082 139.699C113.978 147.621 116.517 158.232 108.315 162.745C105.299 164.405 100.938 164.837 91.4928 164.636C86.3985 164.528 82.4411 163.91 79.8401 161.405C78.0489 159.68 76.8843 155.648 76.5691 152.935C76.3553 151.096 76.3139 150.22 76 148.568C75.2967 145.514 74.8242 142.411 74.5867 139.286C74.2583 136.163 73.7427 131.182 73.4429 124.483C73.1879 118.786 73.0862 111.784 73.4429 103.742C74.9417 106.153 76.7409 108.991 78.8186 112.163C83.6316 119.51 85.2818 121.535 88.1269 123.477C88.7276 123.889 94.8578 128.127 98.1517 126.936C101.288 125.802 103.145 119.281 101.114 111.323Z" fill="#603A33"/>
<path d="M55.9997 87.7234C63.8772 87.7234 70.263 81.6585 70.263 74.1773C70.263 66.6959 63.8772 60.6311 55.9997 60.6311C48.1223 60.6311 41.7363 66.6959 41.7363 74.1773C41.7363 81.6585 48.1223 87.7234 55.9997 87.7234Z" fill="#C48686"/>
<path d="M55.9991 87.7234C58.5166 87.7469 60.9962 87.1105 63.1899 85.8778C65.3836 84.6452 67.2145 82.8594 68.4994 80.6991C66.7253 80.927 64.9244 80.5873 63.3559 79.7289C62.1748 79.077 61.1876 78.1248 60.4945 76.969C59.7824 75.632 59.4214 74.1367 59.4454 72.6228C59.3566 71.1632 59.4852 69.6985 59.8269 68.2766C57.6118 68.467 55.3968 68.6573 53.1819 68.8476C53.3425 70.2616 53.3211 71.6901 53.1183 73.0987C53.0283 74.4705 52.6024 75.7994 51.8784 76.969C51.427 77.6386 50.8558 78.2194 50.1933 78.682C49.1846 79.3116 48.0403 79.6922 46.8548 79.7924C45.6521 79.9814 44.4405 80.1093 43.2246 80.1756C44.4603 82.4776 46.3041 84.398 48.5561 85.7286C50.808 87.0591 53.382 87.749 55.9991 87.7234Z" fill="#AF7474"/>
<path d="M61.1377 67.2556C61.5164 68.1328 60.7019 69.11 59.9429 70.0204C59.1452 70.9772 57.979 72.3762 56.3127 72.3574C54.7506 72.3399 53.6963 71.0873 52.7502 69.9634C51.9019 68.9555 51.1577 68.0713 51.4919 67.2556C52.0924 65.7901 55.6599 65.8003 56.3466 65.8022C57.173 65.8046 60.5154 65.8141 61.1377 67.2556Z" fill="#562929"/>
<path d="M21.2092 34.4976C17.4001 38.0676 14.6419 42.6089 13.2324 47.6301C14.3752 45.3863 15.6851 43.018 17.1876 40.5664C18.5303 38.3755 19.8825 36.3534 21.2092 34.4976Z" fill="#492A26"/>
<path d="M22.5158 37.6167C18.9678 41.4453 16.5363 46.1689 15.4844 51.2766C16.4661 48.9582 17.6059 46.5038 18.9318 43.9527C20.1168 41.673 21.3232 39.5611 22.5158 37.6167Z" fill="#492A26"/>
<path d="M14.5999 48.0193C12.707 51.8177 11.8909 56.0601 12.2398 60.2876C12.4751 58.2537 12.8027 56.0775 13.2534 53.7834C13.6563 51.7333 14.1142 49.8093 14.5999 48.0193Z" fill="#492A26"/>
<path d="M66.2479 19.1755C70.2234 20.8932 73.6528 23.6626 76.1649 27.1843C74.6422 25.7543 72.9542 24.274 71.0923 22.7827C69.4286 21.4498 67.8048 20.2514 66.2479 19.1755Z" fill="#492A26"/>
<path d="M69.6133 24.8018C72.6465 26.5768 75.1356 29.1454 76.8114 32.23C75.7261 30.9281 74.5124 29.5693 73.1598 28.1846C71.951 26.9471 70.7613 25.8217 69.6133 24.8018Z" fill="#492A26"/>
<path d="M75.3701 23.9924C78.4331 25.7158 80.9656 28.2419 82.6937 31.2976C81.5863 30.0142 80.3496 28.6763 78.9736 27.3147C77.744 26.0978 76.5353 24.9929 75.3701 23.9924Z" fill="#492A26"/>
<path d="M14.9591 101.614C15.143 103.87 15.167 106.136 15.0311 108.396C14.8464 111.509 14.3578 114.595 13.5723 117.613C14.9729 114.801 15.747 111.719 15.8412 108.581C15.9309 106.225 15.633 103.872 14.9591 101.614Z" fill="#492A26"/>
<path d="M17.1761 111.285C17.0809 113.137 16.8548 114.981 16.4996 116.801C16.0124 119.309 15.2813 121.763 14.3164 124.129C15.7587 121.996 16.7211 119.577 17.1376 117.039C17.4656 115.136 17.4785 113.192 17.1761 111.285Z" fill="#492A26"/>
<path d="M18.4531 103.742C18.7106 105.135 18.8693 106.543 18.9281 107.958C19.0105 109.905 18.9022 111.856 18.6049 113.782C19.8158 110.535 19.7617 106.953 18.4531 103.742Z" fill="#492A26"/>
<path d="M37.2376 128.974C37.2189 130.829 37.069 132.68 36.7889 134.514C36.4055 137.04 35.776 139.522 34.9093 141.925C37.283 138.052 38.1138 133.43 37.2376 128.974Z" fill="#492A26"/>
<path d="M35.6154 124.078C35.959 127.201 35.7753 130.361 35.0723 133.424C36.4194 130.486 36.6132 127.151 35.6154 124.078Z" fill="#492A26"/>
<path d="M79.9124 138.779C79.9577 143.195 80.7448 147.573 82.2407 151.731C79.8671 147.856 79.0362 143.235 79.9124 138.779Z" fill="#492A26"/>
<path d="M77.2145 134.835C76.8709 137.959 77.0545 141.118 77.7576 144.181C76.4104 141.243 76.2166 137.909 77.2145 134.835Z" fill="#492A26"/>
<path d="M81.5348 131.118C81.1912 134.242 81.3748 137.4 82.0779 140.463C80.7308 137.526 80.5369 134.191 81.5348 131.118Z" fill="#492A26"/>
<path d="M109.12 162.258C116.342 157.505 113.914 147.35 112.083 139.699C112.059 139.596 112.034 139.496 112.009 139.395C111.979 139.274 111.944 139.133 111.901 138.966L111.881 138.89C111.857 138.799 111.832 138.703 111.804 138.602C111.524 137.569 111.134 136.363 110.304 134.059C110.142 133.648 109.926 133.059 109.643 132.246C108.425 128.932 106.897 124.956 105.018 120.408C102.663 110.798 101.926 100.866 102.836 91.0148C103.64 82.6054 105.224 79.0992 105.922 73.9612C106.01 73.2076 106.065 72.7297 106.079 72.6077V72.6005C106.088 72.5059 106.1 72.4152 106.109 72.3192C106.126 72.1394 106.136 72.0111 106.136 72.0087C106.159 71.7249 106.175 71.4246 106.192 71.1275C106.204 70.9291 106.219 70.7386 106.227 70.5336C106.242 70.1863 106.248 69.8169 106.255 69.4491C106.258 69.2747 106.265 69.1107 106.266 68.9309C106.27 68.3723 106.264 67.7902 106.247 67.1776C106.244 67.0734 106.241 66.9464 106.237 66.8131L106.233 66.6802L106.228 66.5735C106.225 66.4867 106.223 66.3989 106.219 66.3028C106.217 66.2559 106.216 66.2101 106.213 66.1606C106.206 65.989 106.198 65.8021 106.188 65.6046C106.146 64.7485 106.086 63.9055 106.01 63.0756L106.008 63.0484L106.006 63.0206C106 62.9579 105.994 62.899 105.989 62.8365C105.264 55.1142 102.416 39.7428 90.6792 28.153C89.0328 26.5887 87.3014 25.117 85.4914 23.7451L85.4638 23.7242C85.3842 23.6663 85.3106 23.6052 85.2304 23.5475C84.6063 23.0994 83.9794 22.6872 83.3524 22.2821C80.0037 20.1751 76.4242 18.458 72.6837 17.1641C72.6489 17.1525 72.6139 17.1404 72.5792 17.1288C72.1294 16.9763 71.669 16.8303 71.2032 16.6886C70.9494 16.6123 70.6993 16.5423 70.4485 16.4712C70.0732 16.3643 69.7001 16.2553 69.3158 16.1573L69.3148 16.1571C68.8721 16.0426 68.4378 15.9388 68.0072 15.8396C67.7365 15.7779 67.4646 15.7148 67.1981 15.6585C66.9891 15.6139 66.7868 15.5756 66.5812 15.5344C64.7662 15.1738 63.0606 14.93 61.5216 14.7735L61.425 14.7643C61.0577 14.7275 60.6998 14.6952 60.3513 14.6673L60.3109 14.6647L60.2871 14.6631C65.6266 16.2469 70.6764 18.6762 75.2438 21.8581C84.565 28.5021 91.5258 37.9331 95.1185 48.7865C96.5753 53.1539 100.62 65.8863 95.7838 80.7558C93.8418 86.6803 90.7714 92.1752 86.7435 96.9391C89.9429 100.727 92.6202 104.926 94.7032 109.422C96.4874 113.284 104.596 130.831 96.838 144.154C95.5656 146.34 92.6944 151.272 87.8027 151.802C83.1063 152.309 78.0176 148.599 74.9468 142.452C75.1796 144.509 75.5316 146.552 76.0011 148.568C76.315 150.22 76.3566 151.096 76.5704 152.935C76.8057 154.837 77.293 156.698 78.0195 158.472C78.3651 159.296 78.8031 160.078 79.325 160.803C79.4826 161.016 79.6551 161.217 79.8412 161.405C82.1143 163.594 85.424 164.342 89.6229 164.567L89.6727 164.569C90.2629 164.601 90.87 164.623 91.494 164.636C100.939 164.836 105.3 164.405 108.317 162.745C108.567 162.555 108.836 162.392 109.12 162.258Z" fill="#492A26"/>
<path d="M29.6418 151.8C27.093 154.317 23.9438 156.143 20.4916 157.107C18.8575 157.526 12.278 159.207 6.42321 155.168C3.38714 152.996 1.19294 149.847 0.209633 146.251L0.206984 146.256C-0.460599 152.015 0.277335 157.64 5.68485 160.616C8.70121 162.277 13.0613 162.708 22.5066 162.507C27.6012 162.399 31.5587 161.781 34.1596 159.276C35.9509 157.551 37.1155 153.519 37.4306 150.807C37.6444 148.967 37.6858 148.091 37.9998 146.439C38.2106 145.331 38.3986 144.525 38.4573 144.276C39.1192 141.018 39.5331 137.716 39.6953 134.396C38.6866 138.572 36.1909 145.957 29.6418 151.8Z" fill="#492A26"/>
<path d="M8.38454 167.828C7.89039 167.802 7.56301 166.987 7.28331 166.29C7.00816 165.576 6.83218 164.828 6.76024 164.065C6.72083 162.89 6.78535 161.713 6.95296 160.549C6.9465 160.209 7.04238 159.874 7.22821 159.588C7.48789 159.347 7.79832 159.168 8.13672 159.063C8.47502 158.959 8.8326 158.932 9.18297 158.984C9.62742 158.989 10.9785 159.006 11.3855 159.807C11.5099 160.113 11.5293 160.451 11.4405 160.769C11.2466 161.94 10.9424 163.089 10.532 164.203C10.305 165.012 9.99114 165.795 9.59596 166.538C9.20267 167.222 8.8309 167.853 8.38454 167.828Z" fill="#B78D8D"/>
<path d="M18.1216 169.295C17.6596 169.28 17.3373 168.346 17.0722 167.578C16.7885 166.66 16.6027 165.714 16.5183 164.757C16.1552 162.242 15.9671 161.365 16.5183 160.83C16.6923 160.675 16.8889 160.548 17.1013 160.452C17.604 160.227 18.1554 160.131 18.7047 160.176C19.2148 160.111 19.7314 160.23 20.1622 160.51C20.3292 160.649 20.4635 160.823 20.5558 161.019C20.9653 161.848 20.6104 162.869 20.0986 164.865C19.9128 165.779 19.6513 166.678 19.3168 167.549C18.9546 168.413 18.5794 169.308 18.1216 169.295Z" fill="#B78D8D"/>
<path d="M28.522 168.336C29.0161 168.309 29.3435 167.493 29.6232 166.797C29.8984 166.083 30.0744 165.334 30.1463 164.572C30.1857 163.396 30.1212 162.22 29.9536 161.056C29.96 160.715 29.8642 160.38 29.6783 160.094C29.4186 159.855 29.1082 159.676 28.7698 159.571C28.4315 159.466 28.0739 159.438 27.7236 159.49C27.2791 159.495 25.928 159.513 25.521 160.314C25.3966 160.62 25.3772 160.957 25.466 161.275C25.6599 162.446 25.9642 163.596 26.3745 164.709C26.6016 165.52 26.9154 166.303 27.3106 167.044C27.704 167.73 28.0756 168.36 28.522 168.336Z" fill="#B78D8D"/>
<path d="M85.4793 170.464C84.9851 170.438 84.6577 169.622 84.378 168.926C84.1029 168.212 83.9269 167.463 83.855 166.701C83.8156 165.526 83.8801 164.349 84.0477 163.185C84.0412 162.845 84.1371 162.509 84.3229 162.224C84.5826 161.983 84.8932 161.804 85.2315 161.699C85.5697 161.594 85.9273 161.567 86.2777 161.619C86.7221 161.625 88.0732 161.642 88.4801 162.443C88.6051 162.749 88.6241 163.087 88.5351 163.405C88.3413 164.575 88.0372 165.725 87.6272 166.839C87.3997 167.648 87.0859 168.431 86.6907 169.174C86.2974 169.858 85.9257 170.489 85.4793 170.464Z" fill="#B78D8D"/>
<path d="M95.8786 171.423C96.3405 171.408 96.6626 170.475 96.9275 169.707C97.2114 168.788 97.3968 167.843 97.4816 166.886C97.845 164.37 98.0325 163.495 97.4816 162.959C97.3078 162.804 97.1108 162.676 96.8989 162.581C96.3956 162.355 95.8447 162.26 95.2959 162.304C94.7852 162.24 94.2682 162.358 93.838 162.639C93.6706 162.778 93.536 162.952 93.4439 163.148C93.0349 163.977 93.3898 164.999 93.9016 166.994C94.087 167.908 94.3487 168.806 94.6835 169.678C95.0458 170.543 95.4209 171.437 95.8786 171.423Z" fill="#B78D8D"/>
<path d="M105.617 169.958C106.111 169.931 106.439 169.116 106.718 168.42C106.993 167.705 107.169 166.957 107.241 166.194C107.28 165.019 107.216 163.842 107.048 162.678C107.054 162.337 106.959 162.002 106.773 161.716C106.513 161.476 106.202 161.297 105.864 161.192C105.526 161.088 105.168 161.061 104.819 161.112C104.374 161.118 103.023 161.136 102.616 161.937C102.491 162.242 102.472 162.58 102.561 162.898C102.755 164.068 103.059 165.218 103.469 166.331C103.697 167.141 104.01 167.924 104.406 168.667C104.799 169.351 105.17 169.981 105.617 169.958Z" fill="#B78D8D"/>
</svg>
