<svg viewBox="0 0 514 352" fill="none" xmlns="http://www.w3.org/2000/svg">
<g filter="url(#filter0_d_1614_5450)">
<g opacity="0.9">
<path d="M365.972 26.049L392.269 56.4813L431.238 48.5195L435.015 88.8509L470.903 105.714L450.679 140.511L470.121 175.85L433.804 191.863L429.041 232.146L390.226 223.19L363.413 252.896L337.116 222.464L298.147 230.425L294.571 190.165L258.482 173.231L278.706 138.434L259.264 103.095L295.782 87.1533L300.274 47.0035L339.159 55.7553L365.972 26.049Z" fill="#EF790A"/>
<path d="M398.404 41.1473L412.936 76.4074L450.028 81.1226L441.542 118.395L468.956 144.582L440.434 169.546L447.633 206.97L410.119 210.334L394.113 244.721L362.104 225.134L329.287 243.376L314.689 208.309L277.474 203.334L285.893 166.255L258.735 139.942L287.001 115.103L280.058 77.5539L317.316 74.315L333.388 39.7348L365.521 59.5831L398.404 41.1473Z" fill="#F28C1C"/>
<path d="M364.609 43.6965L387.588 70.0556L421.322 62.9238L424.814 98.0177L456.38 112.554L438.797 142.983L456.013 173.452L424.27 187.762L420.358 222.618L386.711 215.231L363.414 241.097L340.434 214.928L306.514 221.868L303.024 186.963L271.643 172.239L289.041 141.998L272.01 111.341L303.566 97.2182L307.481 62.1751L341.312 69.7505L364.609 43.6965Z" fill="#F5AA3C"/>
<path d="M337.332 220.459C379.649 235.474 425.894 212.71 440.624 169.614C455.353 126.517 432.989 79.4083 390.672 64.3927C348.355 49.3772 302.11 72.1413 287.381 115.238C272.651 158.334 295.015 205.443 337.332 220.459Z" fill="#FAC63E"/>
</g>
<path d="M202.314 178.022C230.299 178.022 253.1 201.197 253.518 229.85H324.477C324.477 197.07 311.606 165.633 288.697 142.454C265.787 119.275 234.715 106.254 202.315 106.254C169.916 106.254 138.843 119.275 115.934 142.454C93.0239 165.633 80.1533 197.07 80.1533 229.85H151.112C151.53 201.2 174.331 178.022 202.314 178.022Z" fill="#C70C0F"/>
<path d="M202.314 178.023C230.299 178.023 253.099 201.197 253.518 229.85H312.653C312.653 168.294 263.156 118.215 202.314 118.215C141.473 118.215 91.9766 168.294 91.9766 229.85H151.112C151.53 201.2 174.331 178.023 202.314 178.023Z" fill="#D06103"/>
<path d="M202.314 178.022C230.299 178.022 253.099 201.197 253.517 229.85H300.829C300.867 216.736 298.346 203.744 293.412 191.618C288.478 179.492 281.228 168.47 272.076 159.184C262.924 149.898 252.051 142.531 240.08 137.503C228.109 132.476 215.275 129.889 202.314 129.889C189.353 129.889 176.519 132.476 164.548 137.503C152.577 142.531 141.704 149.898 132.552 159.184C123.4 168.47 116.15 179.492 111.216 191.618C106.282 203.744 103.761 216.736 103.799 229.85H151.112C151.529 201.2 174.33 178.022 202.314 178.022Z" fill="#E3C600"/>
<path d="M202.313 178.022C230.299 178.022 253.099 201.197 253.517 229.85H289.007C289.007 218.332 286.764 206.926 282.408 196.285C278.051 185.643 271.665 175.974 263.615 167.829C255.565 159.685 246.008 153.224 235.49 148.816C224.972 144.408 213.699 142.14 202.314 142.14C190.93 142.14 179.657 144.408 169.139 148.816C158.621 153.224 149.064 159.685 141.014 167.829C132.964 175.974 126.578 185.643 122.221 196.285C117.864 206.926 115.622 218.332 115.622 229.85H151.112C151.529 201.2 174.33 178.022 202.313 178.022Z" fill="#008536"/>
<path d="M202.314 178.022C230.299 178.022 253.099 201.197 253.518 229.85H277.184C277.184 209.76 269.296 190.494 255.255 176.288C241.215 162.083 222.171 154.102 202.315 154.102C182.459 154.102 163.415 162.083 149.375 176.288C135.334 190.494 127.446 209.76 127.446 229.85H151.112C151.53 201.2 174.331 178.022 202.314 178.022Z" fill="#008DC5"/>
<path d="M202.314 178.022C230.299 178.022 253.099 201.197 253.517 229.85H265.36C265.39 221.454 263.781 213.134 260.626 205.369C257.472 197.603 252.832 190.544 246.975 184.597C241.118 178.649 234.158 173.93 226.494 170.71C218.83 167.49 210.613 165.832 202.314 165.832C194.016 165.832 185.799 167.49 178.135 170.71C170.471 173.93 163.511 178.649 157.653 184.597C151.796 190.544 147.157 197.603 144.002 205.369C140.847 213.134 139.238 221.454 139.268 229.85H151.112C151.529 201.2 174.33 178.022 202.314 178.022Z" fill="#4F2074"/>
<path d="M167.627 251.703C167.627 235.038 153.953 221.461 136.972 221.461C131.024 221.458 125.2 223.178 120.186 226.416C114.971 211.809 100.788 201.321 84.1894 201.321C76.395 201.265 68.771 203.628 62.3457 208.092C55.9203 212.556 51.0026 218.907 48.2559 226.287C43.2832 223.125 37.5277 221.45 31.6544 221.458C14.737 221.458 1 234.974 1 251.703C0.999136 256.33 2.06849 260.893 4.12254 265.027C6.17659 269.161 9.15833 272.751 12.8293 275.51C20.0798 283.361 49.2713 289.216 84.1869 289.216C117.703 289.216 145.941 283.812 154.59 276.416C158.602 273.697 161.891 270.02 164.165 265.71C166.438 261.399 167.627 256.589 167.627 251.703Z" fill="#86B9DC"/>
<path d="M448.962 261.997C448.962 237.096 428.531 216.81 403.159 216.81C394.269 216.805 385.564 219.374 378.071 224.213C370.279 202.389 349.088 186.717 324.287 186.717C299.485 186.717 278.484 202.293 270.596 224.02C263.167 219.297 254.568 216.798 245.794 216.81C220.517 216.81 199.992 237 199.992 261.997C199.991 268.91 201.589 275.728 204.658 281.905C207.727 288.082 212.182 293.446 217.667 297.569C228.5 309.298 272.117 318.048 324.287 318.048C374.366 318.048 416.557 309.972 429.481 298.915C435.475 294.854 440.388 289.361 443.786 282.922C447.184 276.483 448.961 269.296 448.962 261.997Z" fill="#86B9DC"/>
<path d="M99.0389 199.711C94.8719 201.789 91.3181 204.939 88.7337 208.845C86.1492 212.751 84.625 217.275 84.3137 221.965C83.5492 216.389 81.295 211.129 77.7942 206.753C75.5014 203.924 72.7217 201.537 69.5894 199.708C73.1555 197.822 76.2732 195.173 78.7261 191.945C81.8877 187.735 83.8231 182.715 84.3137 177.452C85.0351 182.017 86.7247 186.37 89.2666 190.211C91.8084 194.053 95.1422 197.292 99.0389 199.706V199.711Z" fill="#E3C600"/>
<path d="M268.004 217.191C263.876 219.249 260.355 222.369 257.796 226.238C255.236 230.107 253.726 234.59 253.419 239.235C252.661 233.712 250.428 228.503 246.961 224.168C244.69 221.365 241.937 219.001 238.834 217.191C242.366 215.322 245.454 212.698 247.884 209.501C251.016 205.331 252.933 200.359 253.419 195.145C254.133 199.667 255.807 203.979 258.324 207.785C260.842 211.59 264.144 214.799 268.004 217.191Z" fill="#E3C600"/>
<path d="M149.641 122.603C146.171 124.332 143.213 126.955 141.062 130.206C138.91 133.458 137.642 137.225 137.384 141.129C136.747 136.488 134.87 132.11 131.957 128.467C130.048 126.112 127.734 124.125 125.127 122.603C128.096 121.033 130.692 118.828 132.735 116.141C135.366 112.637 136.976 108.458 137.384 104.077C138.04 108.188 139.632 112.088 142.035 115.468C144.08 118.331 146.665 120.756 149.641 122.603Z" fill="#E3C600"/>
</g>
<defs>
<filter id="filter0_d_1614_5450" x="0" y="0" width="513.728" height="351.806" filterUnits="userSpaceOnUse" color-interpolation-filters="sRGB">
<feFlood flood-opacity="0" result="BackgroundImageFix"/>
<feColorMatrix in="SourceAlpha" type="matrix" values="0 0 0 0 0 0 0 0 0 0 0 0 0 0 0 0 0 0 127 0" result="hardAlpha"/>
<feOffset dx="4" dy="10"/>
<feGaussianBlur stdDeviation="2.5"/>
<feComposite in2="hardAlpha" operator="out"/>
<feColorMatrix type="matrix" values="0 0 0 0 0.114219 0 0 0 0 0.461309 0 0 0 0 0.5375 0 0 0 0.1 0"/>
<feBlend mode="normal" in2="BackgroundImageFix" result="effect1_dropShadow_1614_5450"/>
<feBlend mode="normal" in="SourceGraphic" in2="effect1_dropShadow_1614_5450" result="shape"/>
</filter>
</defs>
</svg>
