<?xml version="1.0" standalone="no"?>
<!DOCTYPE svg PUBLIC "-//W3C//DTD SVG 20010904//EN"
 "http://www.w3.org/TR/2001/REC-SVG-20010904/DTD/svg10.dtd">
<svg version="1.0" xmlns="http://www.w3.org/2000/svg"
 width="512.000000pt" height="512.000000pt" viewBox="0 0 512.000000 512.000000"
 preserveAspectRatio="xMidYMid meet">
<metadata>
Created by potrace 1.14, written by Peter Selinger 2001-2017
</metadata>
<g transform="translate(0.000000,512.000000) scale(0.100000,-0.100000)"
fill="#000000" stroke="none">
<path d="M0 2560 l0 -2560 2560 0 2560 0 0 2560 0 2560 -2560 0 -2560 0 0
-2560z m3543 1381 c67 -9 79 -14 212 -87 80 -44 176 -139 201 -199 9 -21 27
-53 40 -70 37 -49 51 -101 64 -239 21 -225 -1 -452 -56 -566 -20 -40 -45 -103
-55 -139 -10 -36 -34 -90 -53 -121 -19 -31 -44 -82 -56 -113 -12 -32 -33 -70
-46 -86 -13 -16 -39 -62 -58 -103 -18 -40 -44 -82 -56 -93 -12 -11 -36 -47
-52 -80 -17 -33 -44 -75 -61 -94 -16 -19 -36 -49 -43 -66 -7 -18 -34 -56 -59
-86 -25 -29 -45 -56 -45 -61 0 -4 -20 -32 -44 -61 -24 -30 -56 -74 -71 -98
-16 -24 -45 -63 -66 -86 -22 -24 -39 -47 -39 -53 0 -5 -21 -34 -47 -64 -27
-30 -68 -78 -93 -107 -85 -99 -130 -109 -237 -53 -37 19 -111 47 -163 61 -52
14 -116 38 -141 53 -46 28 -127 60 -152 60 -8 0 -43 18 -80 40 -37 22 -97 50
-134 61 -38 11 -85 34 -106 51 -21 16 -66 41 -100 54 -34 13 -87 42 -118 64
-32 22 -62 40 -69 40 -6 0 -22 11 -35 25 -54 53 -18 126 122 249 62 55 81 66
130 76 63 13 46 -2 318 285 31 33 124 129 206 214 82 84 149 161 149 171 0 24
-26 45 -91 74 -30 13 -77 38 -102 54 -34 21 -66 32 -114 37 -99 10 -169 32
-219 66 -72 49 -142 78 -172 70 -15 -4 -40 -26 -57 -52 -29 -40 -36 -44 -73
-44 -55 -1 -61 -10 -27 -45 l28 -30 -16 -77 c-9 -43 -19 -100 -22 -127 -4 -37
-17 -66 -53 -118 -26 -38 -51 -75 -57 -83 -7 -11 -3 -28 18 -64 44 -79 36
-198 -22 -331 -15 -36 -36 -87 -46 -114 -18 -51 -46 -86 -68 -86 -54 0 -338
277 -379 370 -11 25 -37 81 -59 125 -50 104 -62 187 -63 430 0 264 9 311 87
467 87 176 149 240 310 322 l116 59 183 5 c232 6 303 -5 428 -63 52 -24 107
-47 122 -50 14 -4 45 -22 67 -41 50 -43 133 -82 193 -90 40 -6 47 -4 66 21 11
14 28 51 37 80 8 30 31 74 50 99 19 25 46 64 61 88 15 24 37 50 48 58 12 8 37
31 56 52 21 22 80 60 144 93 88 45 124 58 180 64 97 11 257 12 339 2z m-1351
-1298 c26 -24 22 -39 -18 -70 -19 -15 -42 -41 -50 -56 -8 -15 -29 -37 -47 -47
-17 -11 -43 -37 -57 -57 -50 -74 -101 -39 -68 46 24 61 97 179 121 196 26 19
92 13 119 -12z"/>
<path d="M2892 2728 c-15 -15 -15 -48 -2 -82 7 -20 3 -49 -17 -124 -22 -80
-26 -118 -26 -222 0 -140 10 -176 56 -198 58 -28 115 26 130 122 4 22 20 56
36 76 17 21 33 51 36 66 4 16 14 48 22 71 8 22 12 49 9 60 -4 10 -40 39 -82
66 l-76 47 7 49 c5 38 3 52 -10 65 -19 19 -66 21 -83 4z"/>
<path d="M1444 2686 c-9 -24 4 -48 23 -44 12 2 18 12 18 28 0 29 -32 41 -41
16z"/>
<path d="M3322 2248 c2 -12 10 -23 18 -23 22 0 19 39 -3 43 -15 3 -18 -1 -15
-20z"/>
</g>
</svg>
